<?xml version="1.0" encoding="UTF-8" standalone="no"?>
<!-- Created with Inkscape (http://www.inkscape.org/) -->

<svg
   xmlns:dc="http://purl.org/dc/elements/1.1/"
   xmlns:cc="http://creativecommons.org/ns#"
   xmlns:rdf="http://www.w3.org/1999/02/22-rdf-syntax-ns#"
   xmlns:svg="http://www.w3.org/2000/svg"
   xmlns="http://www.w3.org/2000/svg"
   xmlns:sodipodi="http://sodipodi.sourceforge.net/DTD/sodipodi-0.dtd"
   xmlns:inkscape="http://www.inkscape.org/namespaces/inkscape"
   width="2119.375"
   height="1068.0938"
   id="svg2"
   version="1.1"
   inkscape:version="0.48.4 r9939"
   sodipodi:docname="snow-flake-v02.svg">
  <defs
     id="defs4" />
  <sodipodi:namedview
     id="base"
     pagecolor="#ffffff"
     bordercolor="#666666"
     borderopacity="1.0"
     inkscape:pageopacity="0.0"
     inkscape:pageshadow="2"
     inkscape:zoom="0.35"
     inkscape:cx="1081.4576"
     inkscape:cy="557.08183"
     inkscape:document-units="mm"
     inkscape:current-layer="layer3"
     showgrid="false"
     units="mm"
     inkscape:snap-object-midpoints="true"
     inkscape:snap-midpoints="true"
     inkscape:object-nodes="true"
     inkscape:window-width="1551"
     inkscape:window-height="848"
     inkscape:window-x="1415"
     inkscape:window-y="24"
     inkscape:window-maximized="1"
     showguides="true"
     inkscape:guide-bbox="true"
     fit-margin-top="0"
     fit-margin-left="0"
     fit-margin-right="0"
     fit-margin-bottom="0" />
  <metadata
     id="metadata7">
    <rdf:RDF>
      <cc:Work
         rdf:about="">
        <dc:format>image/svg+xml</dc:format>
        <dc:type
           rdf:resource="http://purl.org/dc/dcmitype/StillImage" />
        <dc:title />
      </cc:Work>
    </rdf:RDF>
  </metadata>
  <g
     inkscape:label="Basis"
     inkscape:groupmode="layer"
     id="layer1"
     transform="translate(-4.0625,18.312497)"
     style="display:inline"
     sodipodi:insensitive="true">
    <path
       id="path3907"
       d="m -1455.7877,-551.15033 -153.4375,88.59375 0,177.15625 153.4375,88.59375 153.4063,-88.59375 0,-177.15625 -153.4063,-88.59375 z m 0,35.4375 122.75,70.875 0,141.71875 -122.75,70.875 -122.75,-70.875 0,-141.71875 122.75,-70.875 z"
       style="fill:#0000ff;stroke:none"
       inkscape:connector-curvature="0" />
    <rect
       style="fill:#800080;fill-opacity:1;stroke:none"
       id="rect3969"
       width="15.944881"
       height="21.910309"
       x="-1463.7731"
       y="-243.19925" />
    <rect
       y="-526.68353"
       x="-1463.7731"
       height="21.910309"
       width="15.944881"
       id="rect3975"
       style="fill:#800080;fill-opacity:1;stroke:none" />
    <g
       id="g4045"
       transform="translate(-1394.2858,-694.28571)">
      <path
         style="fill:#0000ff;stroke:none"
         d="m 681.89559,238.48795 -141.73227,-81.8352 -141.7299,81.83934 -1e-5,163.63447 141.73228,81.83519 141.72988,-81.83933 2e-5,-163.63447 z m -35.43377,20.4577 -4e-5,122.71662 -106.3012,61.37303 -106.29921,-61.37648 4e-5,-122.71663 106.30117,-61.37301 106.29924,61.37647 z"
         id="path3909"
         inkscape:connector-curvature="0" />
      <rect
         transform="matrix(0.5,0.8660254,-0.8660254,0.5,0,0)"
         style="fill:#800080;fill-opacity:1;stroke:none"
         id="rect3965"
         width="15.944881"
         height="10.955115"
         x="539.4931"
         y="-154.94525" />
      <rect
         transform="matrix(0.5,0.8660254,-0.8660254,0.5,0,0)"
         y="-471.29492"
         x="539.4931"
         height="10.955115"
         width="15.944881"
         id="rect3971"
         style="fill:#800080;fill-opacity:1;stroke:none" />
      <rect
         y="188.07011"
         x="532.19086"
         height="19.00176"
         width="15.944881"
         id="rect3993"
         style="fill:#800080;fill-opacity:1;stroke:none" />
      <rect
         style="fill:#800080;fill-opacity:1;stroke:none"
         id="rect3997"
         width="15.944881"
         height="19.00176"
         x="532.18811"
         y="433.53442" />
    </g>
    <g
       id="g4035"
       transform="translate(-1158.1531,-694.30923)">
      <path
         inkscape:connector-curvature="0"
         id="path3917"
         d="m 987.38346,391.19311 0.0225,-141.7265 -122.7591,-70.875 -122.73892,70.84006 -0.0381,141.75356 122.7591,70.87499 122.75455,-70.86711 z m -30.68977,-17.71875 -92.06591,53.15033 -92.04227,-53.14062 -0.003,-106.30659 92.06591,-53.15034 92.04226,53.14063 0.003,106.30659 z"
         style="fill:#0000ff;stroke:none" />
      <rect
         transform="matrix(0.5,0.8660254,-0.8660254,0.5,0,0)"
         style="fill:#800080;fill-opacity:1;stroke:none"
         id="rect3989"
         width="15.944881"
         height="9.5008841"
         x="701.74902"
         y="-730.38531" />
      <rect
         transform="matrix(0.5,0.8660254,-0.8660254,0.5,0,0)"
         y="-456.38635"
         x="701.74902"
         height="9.5008841"
         width="15.944881"
         id="rect3999"
         style="fill:#800080;fill-opacity:1;stroke:none" />
      <rect
         y="205.82158"
         x="856.6615"
         height="16.411118"
         width="15.944881"
         id="rect4022"
         style="fill:#800080;fill-opacity:1;stroke:none" />
      <rect
         style="fill:#800080;fill-opacity:1;stroke:none"
         id="rect4024"
         width="15.944881"
         height="16.411118"
         x="856.65533"
         y="418.41913" />
    </g>
    <g
       id="g4030"
       transform="translate(-2607.4919,-694.32886)">
      <path
         inkscape:connector-curvature="0"
         id="path3934"
         d="m 1151.7043,197.61603 -106.3125,61.34375 0,122.75 106.2812,61.375 106.3125,-61.375 0,-122.71875 -106.2812,-61.375 z m -0.031,43 69.0625,39.875 0,79.71875 -69.0625,39.84375 -69.0313,-39.84375 0,-79.71875 69.0313,-39.875 z"
         style="fill:#0000ff;fill-opacity:1;stroke:none" />
      <rect
         style="fill:#800080;fill-opacity:1;stroke:none"
         id="rect4018"
         width="15.944881"
         height="8.205554"
         x="1143.7318"
         y="197.61603" />
      <rect
         y="434.87921"
         x="1143.7318"
         height="8.205554"
         width="15.944881"
         id="rect4026"
         style="fill:#800080;fill-opacity:1;stroke:none" />
    </g>
    <path
       style="fill:#008000;fill-opacity:1;stroke:none"
       d="m -1061.7233,-766.24819 0,41.5625 -29.1875,-29.1875 -20.0625,20.0312 49.25,49.25 0,60.0782 28.3438,0 0,-60.0469 49.24995,-49.2813 -20.03125,-20.0312 -29.2187,29.2187 0,-41.5937 z"
       id="rect4065"
       inkscape:connector-curvature="0"
       sodipodi:nodetypes="ccccccccccccc" />
    <path
       sodipodi:nodetypes="ccccccccccccc"
       inkscape:connector-curvature="0"
       id="path4809"
       d="m -1469.9596,-682.88476 0,41.5625 -29.1875,-29.1875 -20.0625,20.03125 49.25,49.25001 0,60.07817 28.3438,0 0,-60.04692 49.25,-49.28126 -20.0313,-20.03125 -29.2187,29.21875 0,-41.59375 z"
       style="fill:#008000;fill-opacity:1;stroke:none" />
    <path
       style="fill:#008000;fill-opacity:1;stroke:none"
       d="m -1194.7218,-539.69701 -35.9942,20.78122 10.6834,-39.87083 -27.3788,-7.35904 -18.0267,67.27679 -52.0293,30.03908 14.1719,24.54642 52.0022,-30.02343 67.3038,18.01113 7.3319,-27.36325 -39.9135,-10.69475 36.0212,-20.79692 z"
       id="path4811"
       inkscape:connector-curvature="0"
       sodipodi:nodetypes="ccccccccccccc" />
    <path
       sodipodi:nodetypes="ccccccccccccc"
       inkscape:connector-curvature="0"
       id="path4813"
       d="m -1180.5499,-232.80636 -35.9942,-20.78128 39.8708,-10.68332 -7.3162,-27.39024 -67.2768,18.02679 -52.0292,-30.03913 -14.1719,24.54642 52.0022,30.02354 18.0537,67.29235 27.3632,-7.33203 -10.6948,-39.91347 36.0213,20.7968 z"
       style="fill:#008000;fill-opacity:1;stroke:none" />
    <path
       style="fill:#008000;fill-opacity:1;stroke:none"
       d="m -1441.6158,-65.072203 0,-41.562507 29.1875,29.187477 20.0625,-20.03113 -49.25,-49.250027 0,-60.0782 -28.3438,1e-5 -1e-4,60.04696 -49.25,49.281147 20.0314,20.03123 29.2186,-29.218737 1e-4,41.593787 z"
       id="path4815"
       inkscape:connector-curvature="0"
       sodipodi:nodetypes="ccccccccccccc" />
    <path
       sodipodi:nodetypes="ccccccccccccc"
       inkscape:connector-curvature="0"
       id="path4817"
       d="m -1716.8848,-208.25992 35.9942,-20.78125 -10.6834,39.87086 27.3787,7.35906 18.0268,-67.27676 52.0292,-30.0391 -14.1719,-24.54644 -52.0022,30.02339 -67.3037,-18.01118 -7.3319,27.36332 39.9135,10.69468 -36.0212,20.79698 z"
       style="fill:#008000;fill-opacity:1;stroke:none" />
    <path
       style="fill:#008000;fill-opacity:1;stroke:none"
       d="m -1731.0567,-515.15056 35.9941,20.78127 -39.8708,10.68337 7.3162,27.3902 67.2768,-18.02673 52.0292,30.0391 14.1719,-24.54646 -52.0021,-30.02356 -18.0537,-67.29233 -27.3633,7.33209 10.6949,39.91342 -36.0213,-20.79681 z"
       id="path4819"
       inkscape:connector-curvature="0"
       sodipodi:nodetypes="ccccccccccccc" />
    <path
       inkscape:connector-curvature="0"
       style="fill:#0000ff;stroke:none"
       d="m -1455.7877,-551.15033 -153.4375,88.59375 0,177.15625 153.4375,88.59375 153.4063,-88.59375 0,-177.15625 -153.4063,-88.59375 z m 0,35.4375 122.75,70.875 0,141.71875 -122.75,70.875 -122.75,-70.875 0,-141.71875 122.75,-70.875 z"
       id="path4824" />
    <rect
       y="-243.19925"
       x="-1463.7731"
       height="21.910309"
       width="15.944881"
       id="rect4826"
       style="fill:#800080;fill-opacity:1;stroke:none" />
    <rect
       style="fill:#800080;fill-opacity:1;stroke:none"
       id="rect4828"
       width="15.944881"
       height="21.910309"
       x="-1463.7731"
       y="-526.68353" />
    <g
       transform="translate(-1394.2858,-694.28571)"
       id="g4830">
      <path
         inkscape:connector-curvature="0"
         id="path4832"
         d="m 681.89559,238.48795 -141.73227,-81.8352 -141.7299,81.83934 -1e-5,163.63447 141.73228,81.83519 141.72988,-81.83933 2e-5,-163.63447 z m -35.43377,20.4577 -4e-5,122.71662 -106.3012,61.37303 -106.29921,-61.37648 4e-5,-122.71663 106.30117,-61.37301 106.29924,61.37647 z"
         style="fill:#0000ff;stroke:none" />
      <rect
         y="-154.94525"
         x="539.4931"
         height="10.955115"
         width="15.944881"
         id="rect4834"
         style="fill:#800080;fill-opacity:1;stroke:none"
         transform="matrix(0.5,0.8660254,-0.8660254,0.5,0,0)" />
      <rect
         style="fill:#800080;fill-opacity:1;stroke:none"
         id="rect4836"
         width="15.944881"
         height="10.955115"
         x="539.4931"
         y="-471.29492"
         transform="matrix(0.5,0.8660254,-0.8660254,0.5,0,0)" />
      <rect
         style="fill:#800080;fill-opacity:1;stroke:none"
         id="rect4838"
         width="15.944881"
         height="19.00176"
         x="532.19086"
         y="188.07011" />
      <rect
         y="433.53442"
         x="532.18811"
         height="19.00176"
         width="15.944881"
         id="rect4840"
         style="fill:#800080;fill-opacity:1;stroke:none" />
    </g>
    <g
       transform="translate(-1158.1531,-694.30923)"
       id="g4842">
      <path
         style="fill:#0000ff;stroke:none"
         d="m 987.38346,391.19311 0.0225,-141.7265 -122.7591,-70.875 -122.73892,70.84006 -0.0381,141.75356 122.7591,70.87499 122.75455,-70.86711 z m -30.68977,-17.71875 -92.06591,53.15033 -92.04227,-53.14062 -0.003,-106.30659 92.06591,-53.15034 92.04226,53.14063 0.003,106.30659 z"
         id="path4844"
         inkscape:connector-curvature="0" />
      <rect
         y="-730.38531"
         x="701.74902"
         height="9.5008841"
         width="15.944881"
         id="rect4846"
         style="fill:#800080;fill-opacity:1;stroke:none"
         transform="matrix(0.5,0.8660254,-0.8660254,0.5,0,0)" />
      <rect
         style="fill:#800080;fill-opacity:1;stroke:none"
         id="rect4848"
         width="15.944881"
         height="9.5008841"
         x="701.74902"
         y="-456.38635"
         transform="matrix(0.5,0.8660254,-0.8660254,0.5,0,0)" />
      <rect
         style="fill:#800080;fill-opacity:1;stroke:none"
         id="rect4850"
         width="15.944881"
         height="16.411118"
         x="856.6615"
         y="205.82158" />
      <rect
         y="418.41913"
         x="856.65533"
         height="16.411118"
         width="15.944881"
         id="rect4852"
         style="fill:#800080;fill-opacity:1;stroke:none" />
    </g>
    <g
       transform="translate(-2607.4919,-694.32886)"
       id="g4854">
      <path
         style="fill:#0000ff;fill-opacity:1;stroke:none"
         d="m 1151.7043,197.61603 -106.3125,61.34375 0,122.75 106.2812,61.375 106.3125,-61.375 0,-122.71875 -106.2812,-61.375 z m -0.031,43 69.0625,39.875 0,79.71875 -69.0625,39.84375 -69.0313,-39.84375 0,-79.71875 69.0313,-39.875 z"
         id="path4856"
         inkscape:connector-curvature="0" />
      <rect
         y="197.61603"
         x="1143.7318"
         height="8.205554"
         width="15.944881"
         id="rect4858"
         style="fill:#800080;fill-opacity:1;stroke:none" />
      <rect
         style="fill:#800080;fill-opacity:1;stroke:none"
         id="rect4860"
         width="15.944881"
         height="8.205554"
         x="1143.7318"
         y="434.87921" />
    </g>
    <path
       style="fill:#008000;fill-opacity:1;stroke:none"
       d="m -1469.9596,-682.88476 0,41.5625 -29.1875,-29.1875 -20.0625,20.03125 49.25,49.25001 0,60.07817 28.3438,0 0,-60.04692 49.25,-49.28126 -20.0313,-20.03125 -29.2187,29.21875 0,-41.59375 z"
       id="path4862"
       inkscape:connector-curvature="0"
       sodipodi:nodetypes="ccccccccccccc" />
    <path
       sodipodi:nodetypes="ccccccccccccc"
       inkscape:connector-curvature="0"
       id="path4864"
       d="m -1194.7218,-539.69701 -35.9942,20.78122 10.6834,-39.87083 -27.3788,-7.35904 -18.0267,67.27679 -52.0293,30.03908 14.1719,24.54642 52.0022,-30.02343 67.3038,18.01113 7.3319,-27.36325 -39.9135,-10.69475 36.0212,-20.79692 z"
       style="fill:#008000;fill-opacity:1;stroke:none" />
    <path
       style="fill:#008000;fill-opacity:1;stroke:none"
       d="m -1180.5499,-232.80636 -35.9942,-20.78128 39.8708,-10.68332 -7.3162,-27.39024 -67.2768,18.02679 -52.0292,-30.03913 -14.1719,24.54642 52.0022,30.02354 18.0537,67.29235 27.3632,-7.33203 -10.6948,-39.91347 36.0213,20.7968 z"
       id="path4866"
       inkscape:connector-curvature="0"
       sodipodi:nodetypes="ccccccccccccc" />
    <path
       sodipodi:nodetypes="ccccccccccccc"
       inkscape:connector-curvature="0"
       id="path4868"
       d="m -1441.6158,-65.072203 0,-41.562507 29.1875,29.187477 20.0625,-20.03113 -49.25,-49.250027 0,-60.0782 -28.3438,1e-5 -1e-4,60.04696 -49.25,49.281147 20.0314,20.03123 29.2186,-29.218737 1e-4,41.593787 z"
       style="fill:#008000;fill-opacity:1;stroke:none" />
    <path
       style="fill:#008000;fill-opacity:1;stroke:none"
       d="m -1716.8848,-208.25992 35.9942,-20.78125 -10.6834,39.87086 27.3787,7.35906 18.0268,-67.27676 52.0292,-30.0391 -14.1719,-24.54644 -52.0022,30.02339 -67.3037,-18.01118 -7.3319,27.36332 39.9135,10.69468 -36.0212,20.79698 z"
       id="path4870"
       inkscape:connector-curvature="0"
       sodipodi:nodetypes="ccccccccccccc" />
    <path
       sodipodi:nodetypes="ccccccccccccc"
       inkscape:connector-curvature="0"
       id="path4872"
       d="m -1731.0567,-515.15056 35.9941,20.78127 -39.8708,10.68337 7.3162,27.3902 67.2768,-18.02673 52.0292,30.0391 14.1719,-24.54646 -52.0021,-30.02356 -18.0537,-67.29233 -27.3633,7.33209 10.6949,39.91342 -36.0213,-20.79681 z"
       style="fill:#008000;fill-opacity:1;stroke:none" />
  </g>
  <g
     inkscape:groupmode="layer"
     id="layer2"
     inkscape:label="Blocks"
     style="display:inline"
     sodipodi:insensitive="true"
     transform="translate(-4.0625,18.3125)">
    <path
       inkscape:connector-curvature="0"
       style="fill:#0000ff;stroke:none"
       d="m -495.24665,209.34354 0,41.5625 -29.1876,-29.1875 -20.0624,20.03125 49.25,49.25 0,58.28125 -112.8438,65.15627 -51.625,-29.81252 -18.0625,-67.28125 -27.3437,7.3125 10.6874,39.9375 -36.0312,-20.8125 -14.1562,24.5625 36,20.78125 -39.875,10.6875 7.3124,27.37502 67.2813,-18.0313 51.0937,29.5 0,147.9063 127.5626,73.6562 0,58.2188 -49.25,49.2812 20.0312,20.0312 29.2188,-29.2187 0,41.5937 28.3437,0 0,-41.5624 29.1875,29.1874 20.0625,-20.0312 -49.25,-49.25 0,-58.25 114.5937,-66.1562 49.9063,28.7812 18.0313,67.3125 27.375,-7.3437 -10.6876,-39.9063 36,20.7813 14.1876,-24.5313 -36,-20.7813 39.875,-10.6874 -7.3126,-27.4063 -67.2812,18.0313 -51.125,-29.5 0,-145.875 -127.5625,-73.65627 0,-58.25 49.25,-49.28125 -20.0313,-20.03125 -29.2187,29.21875 0,-41.59375 -28.3437,0 z m 14.1874,172.65625 106.2813,61.37502 0,122.7187 -106.2813,61.375 -106.3124,-61.375 0,-122.7187 106.3124,-61.37502 z"
       id="path3909-5" />
    <rect
       y="821.68213"
       x="188.6032"
       height="10.955115"
       width="15.944881"
       id="rect3965-7"
       style="fill:#ffff00;fill-opacity:1;stroke:none"
       transform="matrix(0.5,0.8660254,-0.8660254,0.5,0,0)" />
    <rect
       style="fill:#ffff00;fill-opacity:1;stroke:none"
       id="rect3971-5"
       width="15.944881"
       height="10.955115"
       x="188.6032"
       y="505.3324"
       transform="matrix(0.5,0.8660254,-0.8660254,0.5,0,0)" />
    <rect
       style="fill:#ffff00;fill-opacity:1;stroke:none"
       id="rect3993-8"
       width="15.944881"
       height="19.00176"
       x="-489.03818"
       y="372.5043" />
    <rect
       y="617.96869"
       x="-489.04086"
       height="19.00176"
       width="15.944881"
       id="rect3997-8"
       style="fill:#ffff00;fill-opacity:1;stroke:none" />
    <rect
       style="fill:#ffff00;fill-opacity:1;stroke:none"
       id="rect3999-6"
       width="15.944881"
       height="9.5008841"
       x="-36.207344"
       y="1201.6398"
       transform="matrix(0.5,0.8660254,-0.8660254,0.5,0,0)" />
    <path
       inkscape:connector-curvature="0"
       style="fill:#0000ff;stroke:none"
       d="m -954.39325,236.79445 0,41.5625 -29.1876,-29.1875 -20.06235,20.0312 49.24995,49.25 0,58.25 -108.56255,62.65626 -0.031,141.75 108.56245,62.6875 0,58.25 -49.24995,49.2813 20.03125,20.0312 29.2187,-29.2188 0,41.5938 28.3437,0 0,-41.5625 29.1876,29.1875 20.0624,-20.0312 -49.25,-49.25 0,-58.2813 108.5938,-62.6875 0.031,-141.7188 -108.5937,-62.68746 0,-58.2187 49.25,-49.2813 -20.0313,-20.0312 -29.2187,29.2187 0,-41.5937 -28.3437,0 z m 14.1874,167.1562 92.0313,53.15626 0,106.2812 -92.0625,53.1563 -92.03115,-53.125 0,-106.3125 92.06235,-53.15626 z"
       id="path4844-6" />
    <rect
       y="608.3432"
       x="-948.21558"
       height="16.411118"
       width="15.944881"
       id="rect4024-8"
       style="fill:#ffff00;fill-opacity:1;stroke:none" />
    <rect
       y="395.74557"
       x="-948.20947"
       height="16.411118"
       width="15.944881"
       id="rect4850-7"
       style="fill:#ffff00;fill-opacity:1;stroke:none" />
    <rect
       transform="matrix(0.5,0.8660254,-0.8660254,0.5,0,0)"
       style="fill:#ffff00;fill-opacity:1;stroke:none"
       id="rect4846-0"
       width="15.944881"
       height="9.5008841"
       x="-36.207344"
       y="927.64075" />
    <path
       inkscape:connector-curvature="0"
       style="fill:#0000ff;stroke:none"
       d="m -1460.7623,178.57797 0,41.5625 -29.1875,-29.1875 -20.0625,20.03125 49.25,49.25 0,58.25 -126.2814,72.90625 -49.9062,-28.78125 -18.0625,-67.3125 -27.3437,7.34375 10.6875,39.90625 -36.0312,-20.78125 -14.1563,24.53125 36,20.78125 -39.875,10.6875 7.3125,27.40625 67.2812,-18.03125 51.125,29.50004 0,141.6563 -51.0937,29.5 -67.3125,-18 -7.3437,27.375 39.9374,10.6874 -36.0312,20.7813 14.1563,24.5625 35.9999,-20.7812 -10.6875,39.875 27.375,7.3437 18.0313,-67.2813 49.9374,-28.8124 126.2814,72.9062 0,58.25 -49.25,49.2812 20.0313,20.0313 29.2187,-29.2187 0,41.5937 28.3437,0 0,-41.5625 29.1876,29.1875 20.0624,-20.0313 -49.25,-49.25 0,-58.2812 126.25,-72.9062 49.9063,28.8124 18.0625,67.2813 27.3438,-7.3437 -10.6876,-39.9063 36.0313,20.8125 14.1563,-24.5625 -36,-20.7813 39.875,-10.6874 -7.3126,-27.375 -67.2812,18.0312 -51.0938,-29.5312 0,-141.6563 51.0626,-29.50004 67.3124,18.03125 7.3438,-27.375 -39.9375,-10.6875 36.0313,-20.8125 -14.1563,-24.53125 -36,20.78125 10.6875,-39.875 -27.375,-7.375 -18.0312,67.28125 -49.9376,28.8125 -126.25,-72.90625 0,-58.21875 49.25,-49.28125 -20.0312,-20.03125 -29.2188,29.21875 0,-41.59375 -28.3437,0 z m 14.1875,167.15625 122.75,70.87499 0,141.7188 -122.75,70.875 -122.7501,-70.875 0,-141.7188 122.7501,-70.87499 z"
       id="path4824-0" />
    <rect
       style="fill:#ffff00;fill-opacity:1;stroke:none"
       id="rect3969-5"
       width="15.944881"
       height="21.910309"
       x="-1454.5758"
       y="618.25507" />
    <rect
       y="334.77084"
       x="-1454.5758"
       height="21.910309"
       width="15.944881"
       id="rect3975-0"
       style="fill:#ffff00;fill-opacity:1;stroke:none" />
    <path
       style="fill:#0000ff;fill-opacity:1;stroke:none"
       d="m -1446.5903,364.74151 -106.3125,61.3437 0,122.75 106.2812,61.375 106.3125,-61.375 0,-122.7187 -106.2812,-61.375 z m -0.031,43 69.0625,39.875 0,79.7187 -69.0625,39.8438 -69.0313,-39.8438 0,-79.7187 69.0313,-39.875 z"
       id="path3934-2"
       inkscape:connector-curvature="0" />
    <rect
       y="602.0047"
       x="-1454.5629"
       height="8.205554"
       width="15.944881"
       id="rect4860-0"
       style="fill:#ffff00;fill-opacity:1;stroke:none" />
    <rect
       style="fill:#ffff00;fill-opacity:1;stroke:none"
       id="rect4858-9"
       width="15.944881"
       height="8.205554"
       x="-1454.5629"
       y="364.74149" />
  </g>
  <g
     inkscape:groupmode="layer"
     id="layer3"
     inkscape:label="Final 0.8"
     transform="translate(-4.0625,18.3125)">
    <path
       style="fill:#aaccff;stroke:#0000ff;stroke-width:0.35433071999999999;stroke-miterlimit:4;stroke-dasharray:none"
       d="m 906.50913,-9.7753311 -18.0313,67.3125001 -51.125,29.500001 -124.5937,-71.937501 0,9.9687 -3.5313,0 0,-9.9374 -125.7813,72.625001 -50.4374,-29.125001 -18.0626,-67.2813001 -27.3437,7.3125001 10.6875,39.9062 -36.0312,-20.7812 -14.1563,24.5312 36,20.7813 -39.875,10.6875 7.3125,27.406201 67.2812,-18.031201 50.4688,29.125001 0,130.3125 -51.625,29.8125 -67.2812,-18 -7.3438,27.3438 39.9062,10.6874 -36.0312,20.8126 14.1875,24.5312 36,-20.7812 -10.6875,39.875 27.375,7.375 18.0312,-67.3126 51.0938,-29.4687 126.3125,72.9063 0,-9.9376 3.5313,0 0,9.9688 125.8124,-72.6562 50.4063,29.125 18.0625,67.2812 27.375,-7.3125 -10.6875,-39.9375 35.99997,20.8125 14.1875,-24.5625 -35.99997,-20.7812 39.87497,-10.6563 -7.3125,-27.4063 -67.28127,18.0313 -50.4374,-29.125 0,-132.3125 49.875,-28.843801 67.31237,18.031301 7.3126,-27.375001 -39.90627,-10.6875 35.99997,-20.7812 -14.1563,-24.5626 -35.99997,20.7813 10.6876,-39.875 -27.375,-7.3750001 z m -195.5,64.7813001 106.2812,61.375001 0.031,120.7187 9.0938,5.25 -1.7812,3.0625 -9.125,-5.2812 -104.5313,60.3437 -106.25,-61.3437 0,-120.6876 -9.125,-5.2812 1.75,-3.0625 9.0937,5.25 104.5626,-60.343701 z"
       id="path3909-5-7"
       inkscape:connector-curvature="0" />
    <path
       style="fill:#aaccff;stroke:#0000ff;stroke-width:0.35433071999999999;stroke-miterlimit:4;stroke-dasharray:none"
       d="m 2019.0759,1036.7707 24.5496,-14.1485 -20.6519,-35.7803 40.1511,10.7585 7.3548,-27.36748 -40.1512,-10.75849 35.7502,-20.6437 -14.1566,-24.57982 -60.3219,34.83056 -56.2581,-15.0743 -32.4414,-121.0727 -134.94,-36.21505 2.2,8.21036 -3.4412,0.92207 -2.1918,-8.18012 -87.1851,87.19225 -56.258,-15.0743 -34.8689,-60.34409 -24.5114,14.17063 20.652,35.78031 -40.1821,-10.7471 -7.3209,27.36031 40.1513,10.75838 -35.7502,20.6439 14.1566,24.57972 60.3218,-34.83058 56.2872,15.07071 32.4575,121.13303 134.8933,36.1632 -2.1919,-8.1802 3.4414,-0.9221 2.1918,8.1802 87.1851,-87.19209 56.249,15.04806 34.8304,60.32203 z m -188.8982,-20.9808 -102.6456,-27.4935 -26.9818,-100.6977 -8.9232,-2.40133 0.9275,-3.41924 8.9164,2.36636 73.6619,-73.66891 102.7135,27.50957 26.9738,100.6676 8.9232,2.40133 -0.9276,3.41923 -8.8872,-2.37098 -73.7522,73.69327 z"
       id="path4844-6-1"
       inkscape:connector-curvature="0" />
    <path
       style="fill:#aaccff;stroke:#0000ff;stroke-width:0.35433071999999999;stroke-miterlimit:4;stroke-dasharray:none"
       d="m 269.29033,-8.6503311 0,41.5625001 -29.1875,-29.1875 -20.0625,20.0313 49.25,49.25 0,58.250001 -126.28125,72.9062 -49.906252,-28.7812 -18.0625,-67.3126 -27.343746,7.3438 10.6875,39.9062 -36.03125,-20.7812 -14.1562495,24.5312 35.9999995,20.7813 -39.8749995,10.6875 7.3124995,27.4062 67.281246,-18.0312 51.125002,29.5 0,141.6562 -51.093752,29.5 -67.312496,-18 -7.3437495,27.375 39.9374995,10.6876 -36.0312495,20.7812 14.1562495,24.5625 36,-20.7813 -10.6875,39.875 27.374996,7.3438 18.03125,-67.2812 49.937502,-28.8126 126.28125,72.9063 0,58.25 -49.25,49.2813 20.0312,20.0312 29.2188,-29.2188 0,41.5938 28.3438,0 0,-41.5625 29.1874,29.1875 20.0626,-20.0312 -49.25,-49.25 0,-58.2813 126.25,-72.9063 49.9062,28.8126 18.0625,67.2812 27.3437,-7.3438 -10.6874,-39.9062 36.0312,20.8125 14.1562,-24.5625 -36,-20.7812 39.875,-10.6876 -7.3124,-27.375 -67.2813,18.0313 -51.0937,-29.5313 0,-141.6562 51.0624,-29.5 67.3126,18.0312 7.3437,-27.375 -39.9375,-10.6874 36.0312,-20.8126 -14.1562,-24.5312 -36,20.7812 10.6875,-39.875 -27.375,-7.375 -18.0313,67.2813 -49.9374,28.8125 -126.25,-72.9062 0,-58.218801 49.25,-49.2812 -20.0313,-20.0313 -29.2187,29.2187 0,-41.5937001 -28.3438,0 z m 12.4062,156.1875011 3.5313,0 0,11.9688 121,69.875 0,141.7187 -121,69.875 0,11.9375 -3.5313,0 0,-11.9688 -120.9687,-69.8437 0,-141.7187 120.9687,-69.8438 0,-12 z"
       id="path4824-0-9"
       inkscape:connector-curvature="0" />
    <path
       style="fill:#aaccff;stroke:#0000ff;stroke-width:0.35433071999999999;stroke-miterlimit:4;stroke-dasharray:none"
       d="m 281.69653,178.53717 -104.5312,60.3125 0,122.75 104.5312,60.375 0,-7.2187 3.5626,0 0,7.1874 104.5,-60.3437 0,-122.7187 -104.5,-60.3438 0,7.1562 -3.5626,0 0,-7.1562 z m 1.75,41.9688 69.0626,39.875 0,79.7187 -69.0626,39.8437 -69.0312,-39.8437 0,-79.7187 69.0312,-39.875 z"
       id="path3934-2-3"
       inkscape:connector-curvature="0" />
    <path
       style="fill:#aaccff;stroke:#0000ff;stroke-width:0.35433071999999999;stroke-miterlimit:4;stroke-dasharray:none"
       d="m 1323.9332,636.7554 -18.0313,67.3125 -51.125,29.50001 -124.5937,-71.93751 0,9.9687 -3.5313,0 0,-9.9374 -125.7813,72.62501 -50.43736,-29.12501 -18.0626,-67.2813 -27.3437,7.3125 10.6875,39.9062 -36.0312,-20.7812 -14.1563,24.5312 36,20.7813 -39.875,10.6875 7.3125,27.40621 67.2812,-18.0312 50.46876,29.125 0,130.3125 -51.62496,29.8125 -67.2812,-18 -7.3438,27.3438 39.9062,10.6874 -36.0312,20.8126 14.1875,24.5312 36,-20.7812 -10.6875,39.87499 27.375,7.375 18.0312,-67.31259 51.09376,-29.4687 126.3125,72.9063 0,-9.9376 3.5313,0 0,9.9688 125.8124,-72.6562 50.4063,29.125 18.0625,67.28119 27.375,-7.3125 -10.6875,-39.93749 36,20.8125 14.1875,-24.5625 -36,-20.7812 39.875,-10.6563 -7.3125,-27.4063 -67.2813,18.0313 -50.4374,-29.125 0,-132.3125 49.875,-28.8438 67.3124,18.0313 7.3126,-27.37501 -39.9063,-10.6875 36,-20.7812 -14.1563,-24.5626 -36,20.7813 10.6876,-39.875 -27.375,-7.375 z m -195.5,64.7813 106.2812,61.37501 0.031,120.7187 9.0938,5.25 -1.7812,3.0625 -9.125,-5.2812 -104.5313,60.3437 -106.25,-61.3437 0,-120.6876 -9.125,-5.2812 1.75,-3.0625 9.0937,5.25 104.5626,-60.34371 z"
       id="path3909-5-7-0"
       inkscape:connector-curvature="0" />
    <path
       style="fill:#aaccff;stroke:#0000ff;stroke-width:0.35433071999999999;stroke-miterlimit:4;stroke-dasharray:none"
       d="m 1937.06,880.53115 20.0202,20.0513 29.2195,-29.2053 0,41.5675 28.3384,0.021 0,-41.5676 29.1932,29.1889 20.0782,-20.0359 -49.256,-49.2518 -10e-5,-58.24263 108.5508,-62.67184 0.056,-139.71517 -7.3613,4.24996 -1.7813,-3.08529 7.3341,-4.2343 -106.7865,-61.6472 0,-58.24252 49.2634,-49.29878 -20.0317,-20.00844 -29.2194,29.20532 -0.019,-41.59451 -28.3227,0.0101 -10e-5,41.56757 -29.1932,-29.18894 -20.0782,20.03583 49.2559,49.25169 0.011,58.26991 -108.6049,62.70308 -0.018,139.65687 7.334,-4.23448 1.7813,3.08529 -7.3343,4.23446 106.7866,61.64712 0.023,58.22703 -49.2539,49.2539 z m -28.6245,-187.89179 -0.01,-106.26402 90.2834,-52.12492 0.01,-9.24071 3.5427,0.0109 0.022,9.22519 90.2239,52.08476 0.012,106.33373 -90.256,52.10938 -0.01,9.24071 -3.5428,-0.0111 -0.01,-9.19801 -90.2707,-52.16601 z"
       id="path4844-6-1-1"
       inkscape:connector-curvature="0" />
    <path
       style="fill:#aaccff;stroke:#0000ff;stroke-width:0.35433071999999999;stroke-miterlimit:4;stroke-dasharray:none"
       d="m 1123.4585,7.641083 0,41.5625 -29.1875,-29.1875 -20.0625,20.0313 49.25,49.25 0,58.250007 -126.2812,72.9062 -49.9063,-28.7812 -18.0625,-67.3126 -27.3437,7.3438 10.6875,39.9062 -36.0313,-20.7812 -14.1562,24.5312 36,20.7813 -39.875,10.6875 7.3125,27.4062 67.2812,-18.0312 51.125,29.5 0,141.6562 -51.0937,29.5 -67.3125,-18 -7.3438,27.375 39.9375,10.6876 -36.0312,20.7812 14.1562,24.5625 36,-20.7813 -10.6875,39.875 27.375,7.3438 18.0313,-67.2812 49.9375,-28.8126 126.2812,72.9063 0,58.25 -49.25,49.2813 20.0312,20.0312 29.2188,-29.2188 0,41.5938 28.3438,0 0,-41.5625 29.1874,29.1875 20.0626,-20.0312 -49.25,-49.25 0,-58.2813 126.25,-72.9063 49.9062,28.8126 18.0625,67.2812 27.3437,-7.3438 -10.6874,-39.9062 36.0312,20.8125 14.1562,-24.5625 -36,-20.7812 39.875,-10.6876 -7.3124,-27.375 -67.2813,18.0313 -51.0937,-29.5313 0,-141.6562 51.0624,-29.5 67.3126,18.0312 7.3437,-27.375 -39.9375,-10.6874 36.0312,-20.8126 -14.1562,-24.5312 -36,20.7812 10.6875,-39.875 -27.375,-7.375 -18.0313,67.2813 -49.9374,28.8125 -126.25,-72.9062 0,-58.218807 49.25,-49.2812 -20.0313,-20.0313 -29.2187,29.2187 0,-41.5937 -28.3438,0 z m 12.4062,156.187507 3.5313,0 0,11.9688 121,69.875 0,141.7187 -121,69.875 0,11.9375 -3.5313,0 0,-11.9688 -120.9687,-69.8437 0,-141.7187 120.9687,-69.8438 0,-12 z"
       id="path4824-0-9-0"
       inkscape:connector-curvature="0" />
    <path
       style="fill:#aaccff;stroke:#0000ff;stroke-width:0.35433071999999999;stroke-miterlimit:4;stroke-dasharray:none"
       d="m 1135.8647,194.82859 -104.5312,60.3125 0,122.75 104.5312,60.375 0,-7.2187 3.5626,0 0,7.1874 104.5,-60.3437 0,-122.7187 -104.5,-60.3438 0,7.1562 -3.5626,0 0,-7.1562 z m 1.75,41.9688 69.0626,39.875 0,79.7187 -69.0626,39.8437 -69.0312,-39.8437 0,-79.7187 69.0312,-39.875 z"
       id="path3934-2-3-9"
       inkscape:connector-curvature="0" />
    <path
       style="fill:#aaccff;stroke:#0000ff;stroke-width:0.35433071999999999;stroke-miterlimit:4;stroke-dasharray:none"
       d="m 687.21449,402.55231 0,41.5625 -29.1875,-29.1875 -20.0625,20.0313 49.25,49.25 0,58.25 -126.28125,72.9062 -49.90625,-28.7812 -18.0625,-67.3126 -27.34375,7.3438 10.6875,39.9062 -36.03125,-20.7812 -14.15625,24.5312 36,20.7813 -39.875,10.6875 7.3125,27.4062 67.28125,-18.0312 51.125,29.5 0,141.6562 -51.09375,29.5 -67.3125,-18 -7.34375,27.375 39.9375,10.6876 -36.03125,20.7812 14.15625,24.5625 36,-20.7813 -10.6875,39.875 27.375,7.3438 18.03125,-67.2812 49.9375,-28.8126 126.28125,72.9063 0,58.25 -49.25,49.28129 20.0312,20.0312 29.2188,-29.2188 0,41.5938 28.3438,0 0,-41.5625 29.1874,29.1875 20.0626,-20.0312 -49.25,-49.24999 0,-58.2813 126.25,-72.9063 49.9062,28.8126 18.0625,67.2812 27.3437,-7.3438 -10.6874,-39.9062 36.0312,20.8125 14.15621,-24.5625 -36.00001,-20.7812 39.87501,-10.6876 -7.3124,-27.375 -67.28131,18.0313 -51.0937,-29.5313 0,-141.6562 51.0624,-29.5 67.31261,18.0312 7.3437,-27.375 -39.93751,-10.6874 36.03121,-20.8126 -14.15621,-24.5312 -36,20.7812 10.6875,-39.875 -27.375,-7.375 -18.0313,67.2813 -49.9374,28.8125 -126.25,-72.9062 0,-58.2188 49.25,-49.2812 -20.0313,-20.0313 -29.2187,29.2187 0,-41.5937 -28.3438,0 z m 12.4062,156.1875 3.5313,0 0,11.9688 121,69.875 0,141.7187 -121,69.875 0,11.9375 -3.5313,0 0,-11.9688 -120.9687,-69.8437 0,-141.7187 120.9687,-69.8438 0,-12 z"
       id="path4824-0-9-4"
       inkscape:connector-curvature="0" />
    <path
       style="fill:#aaccff;stroke:#0000ff;stroke-width:0.35433071999999999;stroke-miterlimit:4;stroke-dasharray:none"
       d="m 699.62069,589.73981 -104.5312,60.3125 0,122.75 104.5312,60.375 0,-7.2187 3.5626,0 0,7.1874 104.5,-60.3437 0,-122.7187 -104.5,-60.3438 0,7.1562 -3.5626,0 0,-7.1562 z m 1.75,41.9688 69.0626,39.875 0,79.7187 -69.0626,39.8437 -69.0312,-39.8437 0,-79.7187 69.0312,-39.875 z"
       id="path3934-2-3-98"
       inkscape:connector-curvature="0" />
    <path
       style="fill:#aaccff;stroke:#0000ff;stroke-width:0.35433071999999999;stroke-miterlimit:4;stroke-dasharray:none"
       d="m 469.96449,636.30225 -18.0313,67.3125 -51.125,29.5 -124.5937,-71.9375 0,9.9687 -3.5313,0 0,-9.9374 -125.7813,72.625 -50.4374,-29.125 -18.0626,-67.2813 -27.343701,7.3125 10.687499,39.9062 -36.0312,-20.7812 -14.1563,24.5312 36.000001,20.7813 -39.875001,10.6875 7.3125,27.4062 67.281202,-18.0312 50.4688,29.125 0,130.31252 -51.625,29.8125 -67.281202,-18 -7.3438,27.3438 39.906201,10.6874 -36.031201,20.8126 14.1875,24.5312 36,-20.7812 -10.6875,39.87503 27.375002,7.375 18.0312,-67.31263 51.0938,-29.4687 126.3125,72.9063 0,-9.9376 3.5313,0 0,9.9688 125.8124,-72.6562 50.4063,29.125 18.0625,67.28123 27.375,-7.3125 -10.6875,-39.93753 35.99997,20.8125 14.1875,-24.5625 -35.99997,-20.7812 39.87497,-10.6563 -7.3125,-27.4063 -67.28127,18.0313 -50.4374,-29.125 0,-132.31252 49.875,-28.8438 67.31237,18.0313 7.3126,-27.375 -39.90627,-10.6875 35.99997,-20.7812 -14.1563,-24.5626 -35.99997,20.7813 10.6876,-39.875 -27.375,-7.375 z m -195.5,64.7813 106.2812,61.375 0.031,120.71872 9.0938,5.25 -1.7812,3.0625 -9.125,-5.2812 -104.5313,60.3437 -106.25,-61.3437 0,-120.68762 -9.125,-5.2812 1.75,-3.0625 9.0937,5.25 104.5626,-60.3437 z"
       id="path3909-5-7-6"
       inkscape:connector-curvature="0" />
    <path
       style="fill:#aaccff;stroke:#0000ff;stroke-width:0.35433071999999999;stroke-miterlimit:4;stroke-dasharray:none"
       d="m 1769.0069,168.06312 20.0512,-20.0203 -29.2088,-29.21597 41.5675,1e-5 0.021,-28.338547 -41.5676,10e-7 29.189,-29.193036 -20.0359,-20.078352 -49.2518,49.256186 -58.2426,3e-5 -62.6718,-108.550775 -139.7152,-0.05602 4.25,7.361211 -3.0855,1.781313 -4.2342,-7.334152 -61.6473,106.786372 -58.2425,1.5e-5 -49.299,-49.263197 -20.0086,20.03185 29.2088,29.215965 -41.5944,0.01899 0.01,28.322866 41.5676,-1.5e-4 -29.189,29.19333 20.0359,20.0782 49.2516,-49.25626 58.2697,-0.011 62.7031,108.60494 139.6568,0.018 -4.2344,-7.33419 3.0855,-1.78128 4.2344,7.33419 61.6473,-106.78632 58.227,-0.023 49.2562,49.25178 z m -187.8917,28.62462 -106.2639,0.01 -52.125,-90.28319 -9.2407,-0.01 0.011,-3.54278 9.2251,-0.022 52.085,-90.223771 106.3336,-0.012 52.1094,90.256031 9.2406,0.0101 -0.011,3.54276 -9.1981,0.01 -52.166,90.27068 z"
       id="path4844-6-1-7"
       inkscape:connector-curvature="0" />
    <path
       style="fill:#aaccff;stroke:#0000ff;stroke-width:0.35433071999999999;stroke-miterlimit:4;stroke-dasharray:none"
       d="m 1679.0797,285.30548 -20.7813,35.99418 -10.6833,-39.87086 -27.3903,7.31636 18.0267,67.27675 -29.125,50.44598 -145.8159,-0.002 -28.8294,-49.87835 18.0137,-67.32567 -27.3523,-7.31198 -10.6975,39.90353 -20.8133,-36.01264 -24.5253,14.16649 20.7862,35.99713 -39.8765,-10.68185 -7.3703,27.39071 67.283,18.02518 29.5255,51.11025 -70.8281,122.67786 -58.9985,8.6e-4 -49.2944,-49.24471 -20.0473,20.03559 29.2431,29.22448 -41.5946,-0.0186 -0.022,28.34989 41.5676,0.003 -29.1931,29.18901 20.0355,20.04739 49.2561,-49.25159 57.6534,0.0163 72.9097,126.27934 -29.125,50.44596 -67.2924,18.05385 7.3319,27.36313 39.9137,-10.69482 -20.7969,36.02129 24.5464,14.1719 20.7813,-35.99418 10.6832,39.87081 27.3904,-7.31623 -18.0268,-67.27675 29.1406,-50.47306 145.7889,-0.0137 28.8137,49.90554 -17.998,67.29845 27.3523,7.31196 10.6975,-39.90348 20.7977,36.03975 24.5409,-14.19365 -20.7863,-35.99705 39.8765,10.68177 7.3548,-27.36364 -67.283,-18.02509 -29.4828,-51.12171 70.8281,-122.67786 58.9714,-0.0165 49.2788,49.27177 20.0473,-20.03559 -29.2432,-29.22431 41.6103,-0.009 0.01,-28.32274 -41.5675,-0.003 29.1932,-29.18901 -20.02,-20.07444 -49.2562,49.25167 -57.6533,-0.0164 -72.8826,-126.26362 29.1094,-50.41896 67.2923,-18.05377 -7.3319,-27.36326 -39.9135,10.69478 20.7968,-36.0212 -24.5464,-14.1719 z m -67.3497,141.46545 3.0582,1.76565 -5.9844,10.36528 69.8516,121.01353 -70.8594,122.73199 -139.7265,0.0135 -5.9688,10.33817 -3.0582,-1.76565 5.9844,-10.36528 -69.8401,-120.97077 70.8594,-122.73199 139.6838,-0.002 6,-10.3923 z"
       id="path4824-0-9-4-5"
       inkscape:connector-curvature="0" />
    <path
       style="fill:#aaccff;stroke:#0000ff;stroke-width:0.35433071999999999;stroke-miterlimit:4;stroke-dasharray:none"
       d="m 1596.23,453.61771 -120.6829,-0.0334 -61.375,106.30462 60.3392,104.55189 3.6093,-6.25157 3.0853,1.7813 -3.5937,6.22446 120.6715,-0.009 61.3594,-106.27751 -60.3278,-104.50927 -3.5781,6.19745 -3.0853,-1.7813 3.5781,-6.19745 z m -19.4688,37.22105 39.8724,69.06406 -39.8593,69.03842 -79.7318,-0.0256 -39.8609,-69.02126 39.8593,-69.03843 79.7203,-0.0172 z"
       id="path3934-2-3-98-9"
       inkscape:connector-curvature="0" />
    <path
       style="fill:#aaccff;stroke:#0000ff;stroke-width:0.35433071999999999;stroke-miterlimit:4;stroke-dasharray:none"
       d="m 1831.2608,505.25925 20.0203,20.0511 29.216,-29.2088 0,41.5676 28.3385,0.021 0,-41.5676 29.1931,29.189 20.0783,-20.0359 -49.2562,-49.2518 0,-58.2426 108.5508,-62.6718 0.056,-139.7152 -7.3612,4.25 -1.7813,-3.0853 7.3341,-4.2343 -106.7864,-61.6474 0,-58.242501 49.2632,-49.298898 -20.0318,-20.0086004 -29.216,29.2088004 -0.019,-41.5944004 -28.3228,0.01 10e-5,41.5675004 -29.1933,-29.1890004 -20.0782,20.0359004 49.2562,49.251598 0.011,58.269801 -108.6049,62.7031 -0.018,139.6568 7.3342,-4.2344 1.7813,3.0853 -7.3342,4.2344 106.7863,61.6474 0.023,58.2271 -49.2518,49.2561 z m -28.6246,-187.8918 -0.01,-106.2639 90.2832,-52.125 0.01,-9.2407 3.5428,0.011 0.022,9.2251 90.2238,52.085 0.012,106.3336 -90.2561,52.1094 -0.01,9.2407 -3.5428,-0.011 -0.01,-9.1981 -90.2707,-52.166 z"
       id="path4844-6-1-7-8"
       inkscape:connector-curvature="0" />
  </g>
</svg>
