<?xml version="1.0" encoding="UTF-8" standalone="no"?>
<!-- Created with Inkscape (http://www.inkscape.org/) -->

<svg
   xmlns:dc="http://purl.org/dc/elements/1.1/"
   xmlns:cc="http://creativecommons.org/ns#"
   xmlns:rdf="http://www.w3.org/1999/02/22-rdf-syntax-ns#"
   xmlns:svg="http://www.w3.org/2000/svg"
   xmlns="http://www.w3.org/2000/svg"
   xmlns:sodipodi="http://sodipodi.sourceforge.net/DTD/sodipodi-0.dtd"
   xmlns:inkscape="http://www.inkscape.org/namespaces/inkscape"
   width="2125.9841"
   height="1062.9921"
   id="svg2"
   version="1.1"
   inkscape:version="0.48.4 r9939"
   sodipodi:docname="snow-flake-v02.svg">
  <defs
     id="defs4" />
  <sodipodi:namedview
     id="base"
     pagecolor="#ffffff"
     bordercolor="#666666"
     borderopacity="1.0"
     inkscape:pageopacity="0.0"
     inkscape:pageshadow="2"
     inkscape:zoom="0.35"
     inkscape:cx="906.16295"
     inkscape:cy="406.63111"
     inkscape:document-units="mm"
     inkscape:current-layer="layer3"
     showgrid="false"
     units="mm"
     inkscape:snap-object-midpoints="true"
     inkscape:snap-midpoints="true"
     inkscape:object-nodes="true"
     inkscape:window-width="1551"
     inkscape:window-height="848"
     inkscape:window-x="1415"
     inkscape:window-y="24"
     inkscape:window-maximized="1"
     showguides="true"
     inkscape:guide-bbox="true"
     fit-margin-top="0"
     fit-margin-left="0"
     fit-margin-right="0"
     fit-margin-bottom="0"
     inkscape:snap-page="true" />
  <metadata
     id="metadata7">
    <rdf:RDF>
      <cc:Work
         rdf:about="">
        <dc:format>image/svg+xml</dc:format>
        <dc:type
           rdf:resource="http://purl.org/dc/dcmitype/StillImage" />
        <dc:title />
      </cc:Work>
    </rdf:RDF>
  </metadata>
  <g
     inkscape:label="Basis"
     inkscape:groupmode="layer"
     id="layer1"
     transform="translate(-4.0625,13.210851)"
     style="display:inline"
     sodipodi:insensitive="true">
    <path
       id="path3907"
       d="m -1455.7877,-551.15033 -153.4375,88.59375 0,177.15625 153.4375,88.59375 153.4063,-88.59375 0,-177.15625 -153.4063,-88.59375 z m 0,35.4375 122.75,70.875 0,141.71875 -122.75,70.875 -122.75,-70.875 0,-141.71875 122.75,-70.875 z"
       style="fill:#0000ff;stroke:none"
       inkscape:connector-curvature="0" />
    <rect
       style="fill:#800080;fill-opacity:1;stroke:none"
       id="rect3969"
       width="15.944881"
       height="21.910309"
       x="-1463.7731"
       y="-243.19925" />
    <rect
       y="-526.68353"
       x="-1463.7731"
       height="21.910309"
       width="15.944881"
       id="rect3975"
       style="fill:#800080;fill-opacity:1;stroke:none" />
    <g
       id="g4045"
       transform="translate(-1394.2858,-694.28571)">
      <path
         style="fill:#0000ff;stroke:none"
         d="m 681.89559,238.48795 -141.73227,-81.8352 -141.7299,81.83934 -1e-5,163.63447 141.73228,81.83519 141.72988,-81.83933 2e-5,-163.63447 z m -35.43377,20.4577 -4e-5,122.71662 -106.3012,61.37303 -106.29921,-61.37648 4e-5,-122.71663 106.30117,-61.37301 106.29924,61.37647 z"
         id="path3909"
         inkscape:connector-curvature="0" />
      <rect
         transform="matrix(0.5,0.8660254,-0.8660254,0.5,0,0)"
         style="fill:#800080;fill-opacity:1;stroke:none"
         id="rect3965"
         width="15.944881"
         height="10.955115"
         x="539.4931"
         y="-154.94525" />
      <rect
         transform="matrix(0.5,0.8660254,-0.8660254,0.5,0,0)"
         y="-471.29492"
         x="539.4931"
         height="10.955115"
         width="15.944881"
         id="rect3971"
         style="fill:#800080;fill-opacity:1;stroke:none" />
      <rect
         y="188.07011"
         x="532.19086"
         height="19.00176"
         width="15.944881"
         id="rect3993"
         style="fill:#800080;fill-opacity:1;stroke:none" />
      <rect
         style="fill:#800080;fill-opacity:1;stroke:none"
         id="rect3997"
         width="15.944881"
         height="19.00176"
         x="532.18811"
         y="433.53442" />
    </g>
    <g
       id="g4035"
       transform="translate(-1158.1531,-694.30923)">
      <path
         inkscape:connector-curvature="0"
         id="path3917"
         d="m 987.38346,391.19311 0.0225,-141.7265 -122.7591,-70.875 -122.73892,70.84006 -0.0381,141.75356 122.7591,70.87499 122.75455,-70.86711 z m -30.68977,-17.71875 -92.06591,53.15033 -92.04227,-53.14062 -0.003,-106.30659 92.06591,-53.15034 92.04226,53.14063 0.003,106.30659 z"
         style="fill:#0000ff;stroke:none" />
      <rect
         transform="matrix(0.5,0.8660254,-0.8660254,0.5,0,0)"
         style="fill:#800080;fill-opacity:1;stroke:none"
         id="rect3989"
         width="15.944881"
         height="9.5008841"
         x="701.74902"
         y="-730.38531" />
      <rect
         transform="matrix(0.5,0.8660254,-0.8660254,0.5,0,0)"
         y="-456.38635"
         x="701.74902"
         height="9.5008841"
         width="15.944881"
         id="rect3999"
         style="fill:#800080;fill-opacity:1;stroke:none" />
      <rect
         y="205.82158"
         x="856.6615"
         height="16.411118"
         width="15.944881"
         id="rect4022"
         style="fill:#800080;fill-opacity:1;stroke:none" />
      <rect
         style="fill:#800080;fill-opacity:1;stroke:none"
         id="rect4024"
         width="15.944881"
         height="16.411118"
         x="856.65533"
         y="418.41913" />
    </g>
    <g
       id="g4030"
       transform="translate(-2607.4919,-694.32886)">
      <path
         inkscape:connector-curvature="0"
         id="path3934"
         d="m 1151.7043,197.61603 -106.3125,61.34375 0,122.75 106.2812,61.375 106.3125,-61.375 0,-122.71875 -106.2812,-61.375 z m -0.031,43 69.0625,39.875 0,79.71875 -69.0625,39.84375 -69.0313,-39.84375 0,-79.71875 69.0313,-39.875 z"
         style="fill:#0000ff;fill-opacity:1;stroke:none" />
      <rect
         style="fill:#800080;fill-opacity:1;stroke:none"
         id="rect4018"
         width="15.944881"
         height="8.205554"
         x="1143.7318"
         y="197.61603" />
      <rect
         y="434.87921"
         x="1143.7318"
         height="8.205554"
         width="15.944881"
         id="rect4026"
         style="fill:#800080;fill-opacity:1;stroke:none" />
    </g>
    <path
       style="fill:#008000;fill-opacity:1;stroke:none"
       d="m -1061.7233,-766.24819 0,41.5625 -29.1875,-29.1875 -20.0625,20.0312 49.25,49.25 0,60.0782 28.3438,0 0,-60.0469 49.24995,-49.2813 -20.03125,-20.0312 -29.2187,29.2187 0,-41.5937 z"
       id="rect4065"
       inkscape:connector-curvature="0"
       sodipodi:nodetypes="ccccccccccccc" />
    <path
       sodipodi:nodetypes="ccccccccccccc"
       inkscape:connector-curvature="0"
       id="path4809"
       d="m -1469.9596,-682.88476 0,41.5625 -29.1875,-29.1875 -20.0625,20.03125 49.25,49.25001 0,60.07817 28.3438,0 0,-60.04692 49.25,-49.28126 -20.0313,-20.03125 -29.2187,29.21875 0,-41.59375 z"
       style="fill:#008000;fill-opacity:1;stroke:none" />
    <path
       style="fill:#008000;fill-opacity:1;stroke:none"
       d="m -1194.7218,-539.69701 -35.9942,20.78122 10.6834,-39.87083 -27.3788,-7.35904 -18.0267,67.27679 -52.0293,30.03908 14.1719,24.54642 52.0022,-30.02343 67.3038,18.01113 7.3319,-27.36325 -39.9135,-10.69475 36.0212,-20.79692 z"
       id="path4811"
       inkscape:connector-curvature="0"
       sodipodi:nodetypes="ccccccccccccc" />
    <path
       sodipodi:nodetypes="ccccccccccccc"
       inkscape:connector-curvature="0"
       id="path4813"
       d="m -1180.5499,-232.80636 -35.9942,-20.78128 39.8708,-10.68332 -7.3162,-27.39024 -67.2768,18.02679 -52.0292,-30.03913 -14.1719,24.54642 52.0022,30.02354 18.0537,67.29235 27.3632,-7.33203 -10.6948,-39.91347 36.0213,20.7968 z"
       style="fill:#008000;fill-opacity:1;stroke:none" />
    <path
       style="fill:#008000;fill-opacity:1;stroke:none"
       d="m -1441.6158,-65.072203 0,-41.562507 29.1875,29.187477 20.0625,-20.03113 -49.25,-49.250027 0,-60.0782 -28.3438,1e-5 -1e-4,60.04696 -49.25,49.281147 20.0314,20.03123 29.2186,-29.218737 1e-4,41.593787 z"
       id="path4815"
       inkscape:connector-curvature="0"
       sodipodi:nodetypes="ccccccccccccc" />
    <path
       sodipodi:nodetypes="ccccccccccccc"
       inkscape:connector-curvature="0"
       id="path4817"
       d="m -1716.8848,-208.25992 35.9942,-20.78125 -10.6834,39.87086 27.3787,7.35906 18.0268,-67.27676 52.0292,-30.0391 -14.1719,-24.54644 -52.0022,30.02339 -67.3037,-18.01118 -7.3319,27.36332 39.9135,10.69468 -36.0212,20.79698 z"
       style="fill:#008000;fill-opacity:1;stroke:none" />
    <path
       style="fill:#008000;fill-opacity:1;stroke:none"
       d="m -1731.0567,-515.15056 35.9941,20.78127 -39.8708,10.68337 7.3162,27.3902 67.2768,-18.02673 52.0292,30.0391 14.1719,-24.54646 -52.0021,-30.02356 -18.0537,-67.29233 -27.3633,7.33209 10.6949,39.91342 -36.0213,-20.79681 z"
       id="path4819"
       inkscape:connector-curvature="0"
       sodipodi:nodetypes="ccccccccccccc" />
    <path
       inkscape:connector-curvature="0"
       style="fill:#0000ff;stroke:none"
       d="m -1455.7877,-551.15033 -153.4375,88.59375 0,177.15625 153.4375,88.59375 153.4063,-88.59375 0,-177.15625 -153.4063,-88.59375 z m 0,35.4375 122.75,70.875 0,141.71875 -122.75,70.875 -122.75,-70.875 0,-141.71875 122.75,-70.875 z"
       id="path4824" />
    <rect
       y="-243.19925"
       x="-1463.7731"
       height="21.910309"
       width="15.944881"
       id="rect4826"
       style="fill:#800080;fill-opacity:1;stroke:none" />
    <rect
       style="fill:#800080;fill-opacity:1;stroke:none"
       id="rect4828"
       width="15.944881"
       height="21.910309"
       x="-1463.7731"
       y="-526.68353" />
    <g
       transform="translate(-1394.2858,-694.28571)"
       id="g4830">
      <path
         inkscape:connector-curvature="0"
         id="path4832"
         d="m 681.89559,238.48795 -141.73227,-81.8352 -141.7299,81.83934 -1e-5,163.63447 141.73228,81.83519 141.72988,-81.83933 2e-5,-163.63447 z m -35.43377,20.4577 -4e-5,122.71662 -106.3012,61.37303 -106.29921,-61.37648 4e-5,-122.71663 106.30117,-61.37301 106.29924,61.37647 z"
         style="fill:#0000ff;stroke:none" />
      <rect
         y="-154.94525"
         x="539.4931"
         height="10.955115"
         width="15.944881"
         id="rect4834"
         style="fill:#800080;fill-opacity:1;stroke:none"
         transform="matrix(0.5,0.8660254,-0.8660254,0.5,0,0)" />
      <rect
         style="fill:#800080;fill-opacity:1;stroke:none"
         id="rect4836"
         width="15.944881"
         height="10.955115"
         x="539.4931"
         y="-471.29492"
         transform="matrix(0.5,0.8660254,-0.8660254,0.5,0,0)" />
      <rect
         style="fill:#800080;fill-opacity:1;stroke:none"
         id="rect4838"
         width="15.944881"
         height="19.00176"
         x="532.19086"
         y="188.07011" />
      <rect
         y="433.53442"
         x="532.18811"
         height="19.00176"
         width="15.944881"
         id="rect4840"
         style="fill:#800080;fill-opacity:1;stroke:none" />
    </g>
    <g
       transform="translate(-1158.1531,-694.30923)"
       id="g4842">
      <path
         style="fill:#0000ff;stroke:none"
         d="m 987.38346,391.19311 0.0225,-141.7265 -122.7591,-70.875 -122.73892,70.84006 -0.0381,141.75356 122.7591,70.87499 122.75455,-70.86711 z m -30.68977,-17.71875 -92.06591,53.15033 -92.04227,-53.14062 -0.003,-106.30659 92.06591,-53.15034 92.04226,53.14063 0.003,106.30659 z"
         id="path4844"
         inkscape:connector-curvature="0" />
      <rect
         y="-730.38531"
         x="701.74902"
         height="9.5008841"
         width="15.944881"
         id="rect4846"
         style="fill:#800080;fill-opacity:1;stroke:none"
         transform="matrix(0.5,0.8660254,-0.8660254,0.5,0,0)" />
      <rect
         style="fill:#800080;fill-opacity:1;stroke:none"
         id="rect4848"
         width="15.944881"
         height="9.5008841"
         x="701.74902"
         y="-456.38635"
         transform="matrix(0.5,0.8660254,-0.8660254,0.5,0,0)" />
      <rect
         style="fill:#800080;fill-opacity:1;stroke:none"
         id="rect4850"
         width="15.944881"
         height="16.411118"
         x="856.6615"
         y="205.82158" />
      <rect
         y="418.41913"
         x="856.65533"
         height="16.411118"
         width="15.944881"
         id="rect4852"
         style="fill:#800080;fill-opacity:1;stroke:none" />
    </g>
    <g
       transform="translate(-2607.4919,-694.32886)"
       id="g4854">
      <path
         style="fill:#0000ff;fill-opacity:1;stroke:none"
         d="m 1151.7043,197.61603 -106.3125,61.34375 0,122.75 106.2812,61.375 106.3125,-61.375 0,-122.71875 -106.2812,-61.375 z m -0.031,43 69.0625,39.875 0,79.71875 -69.0625,39.84375 -69.0313,-39.84375 0,-79.71875 69.0313,-39.875 z"
         id="path4856"
         inkscape:connector-curvature="0" />
      <rect
         y="197.61603"
         x="1143.7318"
         height="8.205554"
         width="15.944881"
         id="rect4858"
         style="fill:#800080;fill-opacity:1;stroke:none" />
      <rect
         style="fill:#800080;fill-opacity:1;stroke:none"
         id="rect4860"
         width="15.944881"
         height="8.205554"
         x="1143.7318"
         y="434.87921" />
    </g>
    <path
       style="fill:#008000;fill-opacity:1;stroke:none"
       d="m -1469.9596,-682.88476 0,41.5625 -29.1875,-29.1875 -20.0625,20.03125 49.25,49.25001 0,60.07817 28.3438,0 0,-60.04692 49.25,-49.28126 -20.0313,-20.03125 -29.2187,29.21875 0,-41.59375 z"
       id="path4862"
       inkscape:connector-curvature="0"
       sodipodi:nodetypes="ccccccccccccc" />
    <path
       sodipodi:nodetypes="ccccccccccccc"
       inkscape:connector-curvature="0"
       id="path4864"
       d="m -1194.7218,-539.69701 -35.9942,20.78122 10.6834,-39.87083 -27.3788,-7.35904 -18.0267,67.27679 -52.0293,30.03908 14.1719,24.54642 52.0022,-30.02343 67.3038,18.01113 7.3319,-27.36325 -39.9135,-10.69475 36.0212,-20.79692 z"
       style="fill:#008000;fill-opacity:1;stroke:none" />
    <path
       style="fill:#008000;fill-opacity:1;stroke:none"
       d="m -1180.5499,-232.80636 -35.9942,-20.78128 39.8708,-10.68332 -7.3162,-27.39024 -67.2768,18.02679 -52.0292,-30.03913 -14.1719,24.54642 52.0022,30.02354 18.0537,67.29235 27.3632,-7.33203 -10.6948,-39.91347 36.0213,20.7968 z"
       id="path4866"
       inkscape:connector-curvature="0"
       sodipodi:nodetypes="ccccccccccccc" />
    <path
       sodipodi:nodetypes="ccccccccccccc"
       inkscape:connector-curvature="0"
       id="path4868"
       d="m -1441.6158,-65.072203 0,-41.562507 29.1875,29.187477 20.0625,-20.03113 -49.25,-49.250027 0,-60.0782 -28.3438,1e-5 -1e-4,60.04696 -49.25,49.281147 20.0314,20.03123 29.2186,-29.218737 1e-4,41.593787 z"
       style="fill:#008000;fill-opacity:1;stroke:none" />
    <path
       style="fill:#008000;fill-opacity:1;stroke:none"
       d="m -1716.8848,-208.25992 35.9942,-20.78125 -10.6834,39.87086 27.3787,7.35906 18.0268,-67.27676 52.0292,-30.0391 -14.1719,-24.54644 -52.0022,30.02339 -67.3037,-18.01118 -7.3319,27.36332 39.9135,10.69468 -36.0212,20.79698 z"
       id="path4870"
       inkscape:connector-curvature="0"
       sodipodi:nodetypes="ccccccccccccc" />
    <path
       sodipodi:nodetypes="ccccccccccccc"
       inkscape:connector-curvature="0"
       id="path4872"
       d="m -1731.0567,-515.15056 35.9941,20.78127 -39.8708,10.68337 7.3162,27.3902 67.2768,-18.02673 52.0292,30.0391 14.1719,-24.54646 -52.0021,-30.02356 -18.0537,-67.29233 -27.3633,7.33209 10.6949,39.91342 -36.0213,-20.79681 z"
       style="fill:#008000;fill-opacity:1;stroke:none" />
  </g>
  <g
     inkscape:groupmode="layer"
     id="layer2"
     inkscape:label="Blocks"
     style="display:inline"
     transform="translate(-4.0625,13.210851)"
     sodipodi:insensitive="true">
    <path
       inkscape:connector-curvature="0"
       style="fill:#0000ff;stroke:none"
       d="m -637.58025,293.34588 0,29.09375 -20.43132,-20.43125 -14.04368,14.02187 34.475,34.475 0,40.79688 -78.99066,45.60939 -36.1375,-20.86877 -12.64375,-47.09687 -19.14059,5.11875 7.48118,27.95625 -25.22184,-14.56875 -9.90934,17.19375 25.2,14.54687 -27.9125,7.48125 5.11868,19.16252 47.09691,-12.62191 35.76559,20.65 0,103.53441 89.29382,51.55934 0,40.75316 -34.475,34.49684 14.02184,14.02184 20.45316,-20.45309 0,29.11559 19.84059,0 0,-29.09368 20.43125,20.43118 14.04375,-14.02184 -34.475,-34.475 0,-40.775 80.21559,-46.30934 34.93441,20.14684 12.62191,47.11875 19.1625,-5.14059 -7.48132,-27.93441 25.2,14.54691 9.93132,-17.17191 -25.2,-14.54691 27.9125,-7.48118 -5.11882,-19.18441 -47.09684,12.62191 -35.7875,-20.65 0,-102.1125 -89.29375,-51.55939 0,-40.775 34.475,-34.49688 -14.02191,-14.02187 -20.45309,20.45312 0,-29.11562 -19.84059,0 z m 9.93118,120.85937 74.39691,42.96252 0,85.90309 -74.39691,42.9625 -74.41868,-42.9625 0,-85.90309 74.41868,-42.96252 z"
       id="path3909-5" />
    <rect
       y="900.51355"
       x="113.70565"
       height="7.6685805"
       width="11.161417"
       id="rect3965-7"
       style="fill:#ffff00;fill-opacity:1;stroke:none"
       transform="matrix(0.5,0.8660254,-0.8660254,0.5,0,0)" />
    <rect
       style="fill:#ffff00;fill-opacity:1;stroke:none"
       id="rect3971-5"
       width="11.161417"
       height="7.6685805"
       x="113.70565"
       y="679.06873"
       transform="matrix(0.5,0.8660254,-0.8660254,0.5,0,0)" />
    <rect
       style="fill:#ffff00;fill-opacity:1;stroke:none"
       id="rect3993-8"
       width="11.161417"
       height="13.301232"
       x="-633.23431"
       y="407.55841" />
    <rect
       y="579.38348"
       x="-633.23621"
       height="13.301232"
       width="11.161417"
       id="rect3997-8"
       style="fill:#ffff00;fill-opacity:1;stroke:none" />
    <rect
       style="fill:#ffff00;fill-opacity:1;stroke:none"
       id="rect3999-6"
       width="11.161417"
       height="6.650619"
       x="-43.661732"
       y="1166.4839"
       transform="matrix(0.5,0.8660254,-0.8660254,0.5,0,0)" />
    <path
       inkscape:connector-curvature="0"
       style="fill:#0000ff;stroke:none"
       d="m -958.98287,312.56152 0,29.09375 -20.43132,-20.43125 -14.04364,14.02184 34.47496,34.475 0,40.775 -75.99383,43.85938 -0.022,99.225 75.99376,43.88125 0,40.775 -34.47496,34.49691 14.02187,14.02184 20.45309,-20.45316 0,29.11566 19.84059,0 0,-29.09375 20.43132,20.43125 14.04368,-14.02184 -34.475,-34.475 0,-40.79691 76.01566,-43.88125 0.0217,-99.20316 -76.01559,-43.88122 0,-40.75309 34.475,-34.49691 -14.02191,-14.02184 -20.45309,20.45309 0,-29.11559 -19.84059,0 z m 9.93118,117.00934 64.42191,37.20938 0,74.39684 -64.44375,37.20941 -64.42177,-37.1875 0,-74.41875 64.44361,-37.20938 z"
       id="path4844-6" />
    <rect
       y="572.64563"
       x="-954.65851"
       height="11.487782"
       width="11.161417"
       id="rect4024-8"
       style="fill:#ffff00;fill-opacity:1;stroke:none" />
    <rect
       y="423.8273"
       x="-954.65424"
       height="11.487782"
       width="11.161417"
       id="rect4850-7"
       style="fill:#ffff00;fill-opacity:1;stroke:none" />
    <rect
       transform="matrix(0.5,0.8660254,-0.8660254,0.5,0,0)"
       style="fill:#ffff00;fill-opacity:1;stroke:none"
       id="rect4846-0"
       width="11.161417"
       height="6.650619"
       x="-43.661732"
       y="974.68457" />
    <path
       inkscape:connector-curvature="0"
       style="fill:#0000ff;stroke:none"
       d="m -1313.4412,271.80998 0,29.09375 -20.4313,-20.43125 -14.0437,14.02188 34.475,34.475 0,40.775 -88.397,51.03437 -34.9343,-20.14687 -12.6438,-47.11875 -19.1406,5.14062 7.4813,27.93438 -25.2219,-14.54688 -9.9094,17.17188 25.2,14.54687 -27.9125,7.48125 5.1188,19.18438 47.0968,-12.62188 35.7875,20.65003 0,99.15941 -35.7656,20.65 -47.1187,-12.6 -5.1406,19.1625 27.9562,7.48118 -25.2219,14.54691 9.9094,17.19375 25.2,-14.54684 -7.4813,27.9125 19.1625,5.14059 12.6219,-47.09691 34.9562,-20.16868 88.397,51.03434 0,40.775 -34.475,34.49684 14.0219,14.02191 20.4531,-20.45309 0,29.11559 19.8406,0 0,-29.09375 20.4313,20.43125 14.0437,-14.02191 -34.475,-34.475 0,-40.79684 88.375,-51.03434 34.9344,20.16868 12.6437,47.09691 19.1407,-5.14059 -7.4813,-27.93441 25.2219,14.56875 9.9094,-17.19375 -25.2,-14.54691 27.9125,-7.48118 -5.1188,-19.1625 -47.0969,12.62184 -35.7656,-20.67184 0,-99.15941 35.7438,-20.65003 47.1187,12.62188 5.1406,-19.1625 -27.9562,-7.48125 25.2219,-14.56875 -9.9094,-17.17188 -25.2,14.54688 7.4812,-27.9125 -19.1625,-5.1625 -12.6218,47.09687 -34.9563,20.16875 -88.375,-51.03437 0,-40.75313 34.475,-34.49687 -14.0219,-14.02188 -20.4531,20.45313 0,-29.11563 -19.8406,0 z m 9.9312,117.00938 85.925,49.61249 0,99.20316 -85.925,49.6125 -85.925,-49.6125 0,-99.20316 85.925,-49.61249 z"
       id="path4824-0" />
    <rect
       style="fill:#ffff00;fill-opacity:1;stroke:none"
       id="rect3969-5"
       width="11.161417"
       height="15.337216"
       x="-1309.1106"
       y="579.58392" />
    <rect
       y="381.14499"
       x="-1309.1106"
       height="15.337216"
       width="11.161417"
       id="rect3975-0"
       style="fill:#ffff00;fill-opacity:1;stroke:none" />
    <path
       style="fill:#0000ff;fill-opacity:1;stroke:none"
       d="m -1303.5208,402.12446 -74.4188,42.94059 0,85.925 74.3969,42.9625 74.4187,-42.9625 0,-85.90309 -74.3968,-42.9625 z m -0.022,30.1 48.3437,27.9125 0,55.80309 -48.3437,27.89066 -48.3219,-27.89066 0,-55.80309 48.3219,-27.9125 z"
       id="path3934-2"
       inkscape:connector-curvature="0" />
    <rect
       y="568.20868"
       x="-1309.1016"
       height="5.7438879"
       width="11.161417"
       id="rect4860-0"
       style="fill:#ffff00;fill-opacity:1;stroke:none" />
    <rect
       style="fill:#ffff00;fill-opacity:1;stroke:none"
       id="rect4858-9"
       width="11.161417"
       height="5.7438879"
       x="-1309.1016"
       y="402.12445" />
  </g>
  <g
     inkscape:groupmode="layer"
     id="layer3"
     inkscape:label="Final 0.8"
     transform="translate(-4.0625,13.210851)">
    <path
       style="fill:none;fill-opacity:1;stroke:#ff0000;stroke-width:0.35433071;stroke-miterlimit:4;stroke-dasharray:none;display:inline"
       d="m 270.00679,649.79001 -47.09375,-12.5938 -20.65625,-35.7812 50.0625,-86.6875 -6.65625,0 0,-3.5625 6.625,0 -50.53125,-87.5 20.375,-35.3125 47.125,-12.625 -5.125,-19.15625 -27.96875,7.46875 14.5625,-25.1875 -17.15625,-9.90625 -14.5625,25.1875 -7.46875,-27.90625 -19.1875,5.09375 12.625,47.125 -20.375,35.31255 -91.25,0 -20.875001,-36.1563 12.625,-47.09375 -19.15625,-5.125 -7.46875,27.9375 -14.5625,-25.21875 -17.15625,9.9375 14.53125,25.1875 -27.90625,-7.46875 -5.15625,19.15625 47.09375,12.59375 20.65625,35.78125 -50.75,87.875 6.65625,0 0,3.5625 -6.65625,0 50.53125,87.5313 -20.375,35.2812 -47.125,12.625 5.15625,19.15621 27.9375,-7.46871 -14.5625,25.21871 17.15625,9.9063 14.5625,-25.1875 7.46875,27.9062 19.1875,-5.125 -12.625,-47.09371 20.375001,-35.3125 92.625,0 20.1875,34.9062 -12.625,47.12501 19.15625,5.125 7.5,-27.9374 14.53125,25.2187 17.21875,-9.9375 -14.5625,-25.15621 27.90625,7.46871 5.15625,-19.18751 z m -45.34375,-136.8438 -42.9375,74.4063 -83.875,0 -3.84375,6.6563 -3.09375,-1.7813 3.84375,-6.6563 -41.906251,-72.625 42.937501,-74.375 83.875,-0.0312 3.84375,-6.6562 3.09375,1.7812 -3.84375,6.6562 41.90625,72.625 z"
       id="path3909-5-9"
       inkscape:connector-curvature="0" />
    <path
       style="fill:none;fill-opacity:1;stroke:#ff0000;stroke-width:0.35433071;stroke-miterlimit:4;stroke-dasharray:none;display:inline"
       d="m 189.65998,650.53809 -9.93046,-17.1388 -25.0525,14.44502 7.54725,-28.09833 -19.16578,-5.12023 -7.54724,28.09831 -14.44502,-25.05249 -17.21534,9.88628 24.39975,42.28184 -10.54963,39.35242 -84.759991,22.71137 -25.1869417,93.87376 5.4333297,-1.45586 0.922045,3.44111 -5.4031497,1.44777 60.5850277,60.57084 -10.541176,39.38271 -42.243573,24.42184 9.900283,17.14689 25.082682,-14.45311 -7.539087,28.12853 19.135599,5.12834 7.547245,-28.09832 14.436927,25.02231 17.20726,-9.91646 -24.383577,-42.22148 10.563293,-39.42096 84.759984,-22.71138 25.17285,-93.80532 -5.43333,1.45585 -0.92204,-3.44111 5.43333,-1.45586 -60.6012,-60.63121 10.54963,-39.35242 L 189.66,650.5381 z m -14.70156,132.28116 -19.25061,71.83655 -69.908885,18.73203 -1.739401,6.54833 -3.449284,-0.9201 1.769623,-6.55641 -51.162989,-51.12509 19.242745,-71.86668 69.908881,-18.73203 1.7394,-6.54833 3.44929,0.9201 -1.76963,6.55641 51.17108,51.15528 z"
       id="path4844-6-2"
       inkscape:connector-curvature="0" />
    <path
       style="fill:none;fill-opacity:1;stroke:#ff0000;stroke-width:0.35433071;stroke-miterlimit:4;stroke-dasharray:none;display:inline"
       d="m 108.21697,29.612616 14.54688,25.195926 -27.918147,-7.480644 -5.151418,19.139981 47.100805,12.643501 20.375,35.29054 -51.03081,88.42455 -40.334888,0.0129 -34.49607,-34.49894 -14.011675,14.04356 20.448316,20.41753 -29.105703,0.0249 -9.39e-4,19.81087 29.094264,0.0178 -20.433145,20.42125 14.03213,14.05436 34.471883,-34.48044 41.315597,-0.002 49.57813,85.87183 -20.65936,35.77946 -47.08125,12.64037 5.112682,19.16792 27.956028,-7.51624 -14.55883,25.22087 17.17281,9.93168 14.54739,-25.17818 7.48499,27.9019 19.15231,-5.13975 -12.6133,-47.09688 20.17864,-34.92458 102.07769,-0.009 20.39062,35.3176 -12.60081,47.11225 19.15142,5.10873 7.48064,-27.91814 14.5625,25.22299 17.18518,-9.92188 -14.54687,-25.19592 27.90252,7.45358 5.15142,-19.13998 -47.10082,-12.6435 -20.39062,-35.3176 51.01937,-88.38186 40.33489,-0.0129 34.48044,34.47189 14.0273,-14.01651 -20.43688,-20.46021 29.12133,0.002 -0.0147,-19.83793 -29.12133,-0.002 20.46021,-20.43688 -14.01651,-14.0273 -34.47188,34.48045 -41.33122,-0.0253 -49.57813,-85.87183 20.63229,-35.763839 47.12394,-12.628929 -5.13974,-19.152299 -27.92896,7.500623 14.5432,-25.247934 -17.15719,-9.904623 -14.57445,25.193807 -7.45793,-27.917522 -19.19499,5.128307 12.64037,47.081259 -20.19008,34.96726 -102.06625,-0.0339 -20.375,-35.290533 12.60082,-47.112251 -19.15142,-5.108731 -7.48065,27.918144 -14.54687,-25.195926 -17.18519,9.921875 z m 61.69271,90.604904 3.05815,-1.76563 4.34375,7.5236 97.20539,-0.0103 49.60938,85.92596 -48.59602,84.20423 4.32812,7.49654 -3.05815,1.76562 -4.34375,-7.52359 -97.15126,-0.0209 -49.60938,-85.92595 48.57314,-84.11886 -4.35938,-7.55066 z"
       id="path4824-0-6"
       inkscape:connector-curvature="0" />
    <path
       style="fill:none;fill-opacity:1;stroke:#ff0000;stroke-width:0.35433071;stroke-miterlimit:4;stroke-dasharray:none;display:inline"
       d="m 180.9253,139.29714 -41.94197,72.60438 42.95312,74.39699 83.86385,0.006 -2.35938,-4.08656 3.08523,-1.78125 2.35937,4.08656 41.92634,-72.63144 -42.95312,-74.39699 -83.84822,0.0206 2.34375,4.05949 -3.08521,1.78125 -2.34375,-4.05949 z m 16.07386,24.27824 55.82004,-0.004 27.90625,48.33505 -27.92942,48.31233 -55.80441,0.0314 -27.90625,-48.33505 27.91379,-48.33939 z"
       id="path3934-2-7"
       inkscape:connector-curvature="0" />
    <path
       style="fill:none;fill-opacity:1;stroke:#ff0000;stroke-width:0.35433071;stroke-miterlimit:4;stroke-dasharray:none;display:inline"
       d="m 338.32109,611.30699 34.48753,34.45344 -0.002,41.31559 -86.69923,50.04226 5.76453,3.32816 -1.78125,3.08522 -5.73742,-3.3125 0.0113,101.04281 -35.30151,20.39402 -47.12395,-12.62893 -5.13973,19.15228 27.95604,7.51632 -25.20515,14.53181 9.90451,17.15706 25.20525,-14.53175 -7.48489,27.90201 19.16367,5.18233 12.62891,-47.1239 35.30154,-20.39407 79.02482,45.62499 1.3e-4,41.74984 -34.48321,34.46895 14.02756,14.01627 20.43655,-20.46037 0.002,29.12127 19.82645,-0.028 0.009,-29.07847 20.43292,20.42137 14.0438,-14.01127 -34.48745,-34.45345 0.002,-41.31553 87.88829,-50.72697 -5.76444,-3.32811 1.78117,-3.08528 5.7645,3.32818 0.004,-101.06995 35.28587,-20.36691 47.12387,12.62888 5.1127,-19.16787 -27.92895,-7.50064 25.22086,-14.55881 -9.90456,-17.1572 -25.20524,14.53177 7.48491,-27.90188 -19.17934,-5.15538 -12.61329,47.09686 -35.30152,20.39401 -80.2156,-46.3125 -0.0298,-40.3234 34.49617,-34.4989 -14.02761,-14.01628 -20.46389,20.44452 0.025,-29.10565 -19.88067,-0.003 0.0334,29.06718 -20.43282,-20.42153 -14.05924,14.03873 z m -29.15302,141.18211 74.38811,-42.969 72.63788,41.9375 6.65689,-3.84267 1.78866,3.08955 -6.65689,3.84269 -0.0207,83.84818 -74.37246,42.9419 -72.65349,-41.91048 -6.65684,3.8426 -1.7887,-3.08948 6.65692,-3.84252 0.0206,-83.84827 z"
       id="path3909-5-9-4"
       inkscape:connector-curvature="0" />
    <path
       style="fill:none;fill-opacity:1;stroke:#ff0000;stroke-width:0.35433071;stroke-miterlimit:4;stroke-dasharray:none;display:inline"
       d="m 265.69609,612.47887 5.1562,19.12499 27.9375,-7.46875 -14.56269,25.18739 17.18744,9.9062 14.56268,-25.18737 7.46886,27.93753 19.18747,-5.09375 -12.62492,-47.15624 20.37099,-35.28356 87.7499,-4e-5 48.62474,-84.1564 -5.62488,5e-5 -5e-5,-3.56252 5.5937,-3e-5 -42.84372,-74.18748 20.37501,-35.31252 47.12492,-12.65628 -5.12501,-19.12502 -27.96869,7.46882 14.56061,-25.21987 -17.15627,-9.90621 -14.56267,25.18732 -7.46915,-27.90615 -19.18744,5.12511 12.62494,47.09371 -20.40627,35.34376 -87.75001,-10e-6 -48.59366,84.0938 5.62496,-2e-5 -4e-5,3.5625 -5.62497,0 42.84375,74.25002 -20.37098,35.28357 -47.12502,12.6562 z m 48.43745,-123.96875 37.18732,-64.40637 72.37501,3e-5 3.37469,-5.87517 3.09363,1.78149 -3.40586,5.87521 36.18751,62.62501 -37.18784,64.43729 -72.37502,10e-6 -3.3747,5.87515 -3.09363,-1.78149 3.40586,-5.8752 -36.18753,-62.65625 z"
       id="path4844-6-2-5"
       inkscape:connector-curvature="0" />
    <path
       style="fill:none;fill-opacity:1;stroke:#ff0000;stroke-width:0.35433071;stroke-miterlimit:4;stroke-dasharray:none;display:inline"
       d="m 747.57007,309.74869 -25.19592,-14.54685 27.91818,-7.4806 -5.10887,-19.15147 -47.11226,12.60086 -35.29053,-20.37501 -0.0182,-102.09333 34.92453,-20.17858 47.12404,12.62887 5.11263,-19.16787 -27.9176,-7.45793 25.1939,-14.57446 -9.90466,-17.157175 -25.20528,14.531715 7.48502,-27.901895 -19.17933,-5.15537 -12.61334,47.096895 -35.77937,20.65953 -85.87178,-49.578145 0.002,-41.3156 34.45335,-34.48749 -14.01168,-14.04356 -20.45251,20.48725 -0.002,-29.12132 -19.83797,-0.0147 -0.009,29.07865 -20.43315,-20.42127 -14.01647,14.0273 34.4719,34.48044 -0.013,40.33492 -88.39734,51.046615 -35.3176,-20.39063 -12.64351,-47.100815 -19.13996,5.15142 7.48069,27.918125 -25.223,-14.562505 -9.92187,17.185205 25.19585,14.54691 -27.89106,7.49626 5.10873,19.15142 47.11223,-12.60081 35.31759,20.39064 0.007,102.05059 -34.9246,20.17862 -47.09691,-12.6133 -5.13974,19.15231 27.92895,7.50062 -25.22076,14.55891 9.93197,17.17266 25.22075,-14.5589 -7.50058,27.92895 19.15221,5.13979 12.61336,-47.09692 35.80652,-20.64369 85.87186,49.57811 0.0138,41.28856 -34.49607,34.4989 14.02733,14.0165 20.4368,-20.4601 0.0292,29.1369 19.81088,-10e-4 0.025,-29.1057 20.41743,20.4483 14.05926,-14.0387 -34.48749,-34.4534 10e-4,-40.37755 88.4089,-51.00376 35.29057,20.37505 12.64338,47.10081 19.13998,-5.15146 -7.48062,-27.9181 25.19592,14.54685 9.92182,-17.1852 z m -98.72983,-47.61978 -1.76566,3.05816 -7.5236,-4.34375 -84.17725,48.61165 -85.92587,-49.60942 -0.0168,-97.22098 -7.49655,-4.32814 1.76566,-3.05814 7.5236,4.34372 84.14589,-48.55752 85.92591,49.60938 -0.006,97.13561 7.55058,4.35941 z"
       id="path4824-0-6-5"
       inkscape:connector-curvature="0" />
    <path
       style="fill:none;fill-opacity:1;stroke:#ff0000;stroke-width:0.35433071;stroke-miterlimit:4;stroke-dasharray:none;display:inline"
       d="m 629.76057,251.11329 0.0206,-83.84821 -74.3969,-42.95315 -72.63131,41.92676 4.0866,2.35938 -1.78119,3.08519 -4.08659,-2.35937 0.006,83.86388 74.3971,42.95307 72.60436,-41.94193 -4.05953,-2.34374 1.78128,-3.08523 4.05943,2.34376 z m -26.05947,-12.98866 -48.33959,27.9135 -48.33505,-27.90626 0.0314,-55.80443 48.31235,-27.92939 48.33504,27.90625 -0.004,55.82004 z"
       id="path3934-2-7-0"
       inkscape:connector-curvature="0" />
    <path
       style="fill:none;fill-opacity:1;stroke:#ff0000;stroke-width:0.35433071;stroke-miterlimit:4;stroke-dasharray:none;display:inline"
       d="m 1107.4444,348.02478 42.2296,24.35345 10.6915,39.9082 -70.793,70.77657 6.4295,1.72277 -0.9221,3.44111 -6.3992,-1.71467 26.1627,97.59695 -28.8203,28.83581 -48.7868,-0.002 -0.01,19.82996 28.9489,0.0246 -20.5853,20.56021 14.0077,14.00905 20.5853,-20.5602 -0.01,28.88843 19.8521,0.0459 0,-48.78685 28.8203,-28.83586 88.1407,23.61723 10.8058,40.32716 -24.3836,42.22148 17.177,9.90835 14.4451,-25.05248 7.5392,28.12849 19.1436,-5.15853 -7.517,-28.09021 25.0222,14.43691 9.9386,-17.16896 -42.2296,-24.35341 -10.6915,-39.90825 71.7645,-71.74566 -6.4295,-1.72278 0.922,-3.44111 6.4295,1.72278 -26.1547,-97.62721 28.8122,-28.80558 48.7869,0.002 -0.023,-19.838 -28.9186,-0.0165 20.5934,-20.59035 -14.0078,-14.00913 -20.5853,20.56021 0.01,-28.88836 -19.8602,-0.0157 0.01,48.75662 -28.8203,28.83582 -89.4689,-23.97312 -10.4652,-38.94171 24.3917,-42.25167 -17.1772,-9.90839 -14.4751,25.04432 -7.509,-28.12035 -19.2041,5.14234 7.5554,28.06808 -25.0223,-14.43687 -9.9467,17.19916 z m 8.381,143.9168 60.7322,-60.75793 81.017,21.70845 5.4355,-5.43467 2.5274,2.52134 -5.4356,5.43464 21.6816,80.99651 -60.7241,60.7277 -81.0251,-21.67832 -5.4356,5.43455 -2.5273,-2.52121 5.4355,-5.43458 -21.6815,-80.99648 z"
       id="path3909-5-9-43"
       inkscape:connector-curvature="0" />
    <path
       style="fill:none;fill-opacity:1;stroke:#ff0000;stroke-width:0.35433071;stroke-miterlimit:4;stroke-dasharray:none;display:inline"
       d="m 1175.1315,367.78736 9.9305,17.1388 25.0525,-14.44502 -7.5473,28.09833 19.1658,5.12023 7.5473,-28.09831 14.445,25.05249 17.2153,-9.88628 -24.3997,-42.28184 10.5496,-39.35242 84.76,-22.71137 25.1869,-93.87376 -5.4333,1.45586 -0.9221,-3.44111 5.4032,-1.44777 -60.585,-60.57084 10.5411,-39.382711 42.2436,-24.42184 -9.9003,-17.14689 -25.0826,14.45311 7.539,-28.12853 -19.1356,-5.12834 -7.5472,28.09832 -14.4369,-25.02231 -17.2073,9.91646 24.3836,42.22148 -10.5633,39.420961 -84.76,22.71138 -25.1728,93.80532 5.4333,-1.45585 0.922,3.44111 -5.4333,1.45586 60.6012,60.63121 -10.5496,39.35242 -42.2436,24.42184 z m 14.7016,-132.28116 19.2506,-71.83655 69.9089,-18.73203 1.7394,-6.54833 3.4493,0.9201 -1.7697,6.55641 51.163,51.12509 -19.2427,71.86668 -69.9089,18.73203 -1.7394,6.54833 -3.4493,-0.9201 1.7696,-6.55641 -51.171,-51.15528 z"
       id="path4844-6-2-8"
       inkscape:connector-curvature="0" />
    <path
       style="fill:none;fill-opacity:1;stroke:#ff0000;stroke-width:0.35433071;stroke-miterlimit:4;stroke-dasharray:none;display:inline"
       d="m 1261.778,970.29691 -20.5723,-20.57241 28.9029,2e-5 0.022,-19.82109 -48.7682,-0.0221 -28.8146,-28.8146 26.406,-98.6193 38.9571,-10.4519 42.2497,24.39517 9.8995,-17.19153 -25.0361,-14.42939 28.1075,-7.55716 -5.1264,-19.13609 -28.1076,7.51297 14.4516,-25.01392 -17.1916,-9.94367 -24.3731,42.22754 -39.9072,10.69517 -70.1141,-70.11404 10.695,-39.90735 42.2054,-24.39517 -9.8995,-17.19153 -25.0581,14.49568 7.5352,-28.12961 -19.1583,-5.14859 -7.535,28.08537 -14.4515,-25.01391 -17.1694,9.9216 24.373,42.22753 -10.4519,38.95719 -98.5972,26.42834 -28.8367,-28.8367 -0.022,-48.76827 -19.821,0.0221 0,28.90298 -20.59449,-20.59449 -14.03166,14.03166 20.57235,20.5724 -28.88091,0.0221 -0.0221,19.82108 48.76831,0.0221 28.8366,28.83671 -26.4059,98.57509 -38.95719,10.45189 -42.22759,-24.37308 -9.92159,17.16945 25.03602,14.47358 -28.12953,7.53522 5.14892,19.15808 28.12954,-7.53521 -14.47359,25.036 17.16944,9.92159 24.3731,-42.22754 39.92937,-10.67286 70.1142,70.11404 -10.6729,39.88524 -42.2497,24.39521 9.9216,17.1694 25.036,-14.4736 -7.513,28.1517 19.1361,5.1265 7.5572,-28.1075 14.4294,25.036 17.2136,-9.9216 -24.3952,-42.20537 10.4519,-39.00136 98.5972,-26.38394 28.8146,28.8146 0.022,48.76827 19.8211,-0.0221 0,-28.903 20.5724,20.57238 14.0317,-14.03165 z m -83.0408,-71.55037 -2.497,2.49696 -6.143,-6.14298 -93.8905,25.16856 -70.1582,-70.15827 25.1465,-93.91261 -6.1209,-6.12091 2.4969,-2.49695 6.143,6.14297 93.8463,-25.12439 70.1583,70.15823 -25.1465,93.82423 6.165,6.1651 z"
       id="path4824-0-6-2"
       inkscape:connector-curvature="0" />
    <path
       style="fill:none;fill-opacity:1;stroke:#ff0000;stroke-width:0.35433071;stroke-miterlimit:4;stroke-dasharray:none;display:inline"
       d="m 1163.1587,883.16809 21.7215,-80.98583 -60.7449,-60.7449 -81.0078,21.69978 3.3367,3.33666 -2.5191,2.51906 -3.3367,-3.33665 -21.6994,81.00793 60.745,60.74487 80.9858,-21.72141 -3.3146,-3.31455 2.519,-2.51906 3.3147,3.31455 z m -21.8098,-19.29075 -53.917,14.45115 -39.4653,-39.46542 14.4736,-53.89479 53.8947,-14.47357 39.4654,39.46542 -14.4515,53.91688 z"
       id="path3934-2-7-8"
       inkscape:connector-curvature="0" />
    <path
       style="fill:none;fill-opacity:1;stroke:#ff0000;stroke-width:0.35433071;stroke-miterlimit:4;stroke-dasharray:none;display:inline"
       d="m 1010.4704,395.01846 -34.48748,-34.45344 0,-41.31559 86.69918,-50.04227 -5.7645,-3.32816 1.7812,-3.08522 5.7375,3.3125 -0.011,-101.04281 35.3015,-20.39402 47.1239,12.62893 5.1397,-19.15228 -27.956,-7.51632 25.2052,-14.53181 -9.9046,-17.15706 -25.2052,14.53175 7.4849,-27.902011 -19.1637,-5.18233 -12.6289,47.123901 -35.3015,20.39407 -79.02488,-45.62499 -10e-5,-41.749841 34.48318,-34.46894 -14.02748,-14.01623 -20.4366,20.46033 0,-29.1212 -19.8264,0.028 -0.01,29.0784 -20.433,-20.42133 -14.0438,14.01123 34.4875,34.45345 0,41.315531 -87.8883,50.72697 5.7644,3.32811 -1.7811,3.08528 -5.7645,-3.32818 0,101.06995 -35.2859,20.36691 -47.1239,-12.62888 -5.1127,19.16787 27.929,7.50064 -25.2209,14.55881 9.9046,17.1572 25.2052,-14.53177 -7.4849,27.90188 19.1794,5.15538 12.6132,-47.09686 35.3016,-20.39401 80.2156,46.3125 0.03,40.3234 -34.4962,34.4989 14.0276,14.01628 20.4639,-20.44452 -0.025,29.10565 19.8807,0.003 -0.033,-29.06718 20.4328,20.42153 14.05918,-14.03873 z m 29.153,-141.18211 -74.38808,42.969 -72.6379,-41.9375 -6.6568,3.84267 -1.7887,-3.08955 6.6569,-3.84269 0.021,-83.84818 74.3724,-42.9419 72.65348,41.91048 6.6569,-3.8426 1.7887,3.08948 -6.6569,3.84252 -0.021,83.84827 z"
       id="path3909-5-9-4-7"
       inkscape:connector-curvature="0" />
    <path
       style="fill:none;fill-opacity:1;stroke:#ff0000;stroke-width:0.35433071;stroke-miterlimit:4;stroke-dasharray:none;display:inline"
       d="m 1111.0954,393.84658 -5.1562,-19.12499 -27.9375,7.46875 14.5627,-25.18739 -17.1874,-9.90621 -14.5627,25.18737 -7.4689,-27.93753 -19.1874,5.09375 12.6249,47.15624 -20.371,35.28356 -87.74988,4e-5 -48.6248,84.1564 5.6249,-5e-5 1e-4,3.56252 -5.5937,3e-5 42.8437,74.18748 -20.375,35.31252 -47.1249,12.65628 5.125,19.12502 27.9687,-7.46882 -14.5606,25.21987 17.1562,9.90621 14.5627,-25.18732 7.4691,27.90615 19.1875,-5.12511 -12.625,-47.09371 20.4063,-35.34376 87.74998,10e-6 48.5937,-84.0938 -5.625,2e-5 10e-5,-3.5625 5.6249,0 -42.8437,-74.25002 20.371,-35.28357 47.125,-12.6562 z m -48.4374,123.96875 -37.1874,64.40637 -72.37498,-3e-5 -3.3747,5.87517 -3.0936,-1.78149 3.4059,-5.87521 -36.1875,-62.62501 37.1878,-64.43729 72.37498,-10e-6 3.3747,-5.87515 3.0937,1.78149 -3.4059,5.8752 36.1875,62.65625 z"
       id="path4844-6-2-5-2"
       inkscape:connector-curvature="0" />
    <path
       style="fill:none;fill-opacity:1;stroke:#ff0000;stroke-width:0.35433071;stroke-miterlimit:4;stroke-dasharray:none;display:inline"
       d="m 581.52761,680.2196 20.57246,20.57238 -28.90303,-5e-5 -0.022,19.82115 48.76833,0.0221 28.81456,28.81461 -26.40631,98.61924 -38.95708,10.45188 -42.24969,-24.39514 -9.8995,17.19148 25.03607,14.42941 -28.10758,7.55719 5.1266,19.13608 28.10753,-7.51294 -14.45149,25.01389 17.19147,9.94368 24.37309,-42.22754 39.90732,-10.69519 70.11402,70.11406 -10.69326,39.90781 -42.20545,24.3952 9.89953,17.1915 25.05808,-14.4957 -7.53715,28.129 19.15815,5.149 7.53577,-28.0852 14.45145,25.0138 17.16943,-9.9216 -24.3731,-42.22745 10.452,-38.95717 98.59707,-26.42834 28.8367,28.83671 0.0222,48.76829 19.82101,-0.0221 -6e-5,-28.90298 20.59449,20.59449 14.03166,-14.03166 -20.57233,-20.57241 28.88089,-0.0221 0.0221,-19.82108 -48.76829,-0.0221 -28.8366,-28.83668 26.40297,-98.57589 38.95719,-10.4519 42.22747,24.37308 9.9216,-17.16946 -25.03591,-14.47357 28.12941,-7.53523 -5.149,-19.1581 -28.12937,7.53522 14.47356,-25.036 -17.16933,-9.92161 -24.37318,42.22755 -39.92941,10.67286 -70.11412,-70.11406 10.67274,-39.88531 42.24964,-24.39513 -9.92159,-17.16943 -25.0359,14.47351 7.51318,-28.15159 -19.13612,-5.12648 -7.55726,28.10748 -14.42928,-25.03596 -17.21373,9.92153 24.39517,42.20545 -10.45144,39.00146 -98.59718,26.38394 -28.81466,-28.81467 -0.022,-48.76824 -19.82101,0.0222 -4e-5,28.90294 -20.57236,-20.57236 -14.03168,14.03165 z m 83.04085,71.55035 2.49695,-2.49698 6.14299,6.14299 93.89065,-25.16856 70.15809,70.15825 -25.14622,93.91266 6.12095,6.12092 -2.49704,2.49694 -6.143,-6.14296 -93.84631,25.1244 -70.15819,-70.15824 25.1502,-93.8232 -6.16492,-6.16508 z"
       id="path4824-0-6-5-0"
       inkscape:connector-curvature="0" />
    <path
       style="fill:none;fill-opacity:1;stroke:#ff0000;stroke-width:0.35433071;stroke-miterlimit:4;stroke-dasharray:none;display:inline"
       d="m 680.14689,767.34839 -21.7218,80.98572 60.74479,60.74489 81.0079,-21.69978 -3.3367,-3.33668 2.51901,-2.51905 3.3367,3.33666 21.69591,-81.00887 -60.74501,-60.74487 -80.98574,21.72142 3.31458,3.31456 -2.51912,2.51906 -3.31447,-3.31454 z m 21.80983,19.29078 53.91701,-14.45117 39.46536,39.4654 -14.4732,53.89492 -53.89475,14.47357 -39.46536,-39.46538 14.44729,-53.91802 z"
       id="path3934-2-7-0-2"
       inkscape:connector-curvature="0" />
    <path
       style="fill:none;fill-opacity:1;stroke:#ff0000;stroke-width:0.35433071;stroke-miterlimit:4;stroke-dasharray:none;display:inline"
       d="m 1613.1176,643.74428 -47.0938,-12.5938 -20.6562,-35.7812 50.0625,-86.6875 -6.6563,0 0,-3.5625 6.625,0 -50.5312,-87.5 20.375,-35.3125 47.125,-12.625 -5.125,-19.15625 -27.9688,7.46875 14.5625,-25.1875 -17.1562,-9.90625 -14.5625,25.1875 -7.4688,-27.90625 -19.1875,5.09375 12.625,47.125 -20.375,35.31255 -91.25,0 -20.875,-36.1563 12.625,-47.09375 -19.1562,-5.125 -7.4688,27.9375 -14.5625,-25.21875 -17.1562,9.9375 14.5312,25.1875 -27.9062,-7.46875 -5.1563,19.15625 47.0938,12.59375 20.6562,35.78125 -50.75,87.875 6.6563,0 0,3.5625 -6.6563,0 50.5313,87.5313 -20.375,35.2812 -47.125,12.625 5.1562,19.15621 27.9375,-7.46871 -14.5625,25.21871 17.1563,9.9063 14.5625,-25.1875 7.4687,27.9062 19.1875,-5.125 -12.625,-47.09371 20.375,-35.3125 92.625,0 20.1875,34.9062 -12.625,47.12501 19.1563,5.125 7.5,-27.9374 14.5312,25.2187 17.2188,-9.9375 -14.5625,-25.15621 27.9062,7.46871 5.1563,-19.18751 z m -45.3438,-136.8438 -42.9375,74.4063 -83.875,0 -3.8437,6.6563 -3.0938,-1.7813 3.8438,-6.6563 -41.9063,-72.625 42.9375,-74.375 83.875,-0.0312 3.8438,-6.6562 3.0937,1.7812 -3.8437,6.6562 41.9062,72.625 z"
       id="path3909-5-9-43-1"
       inkscape:connector-curvature="0" />
    <path
       style="fill:none;fill-opacity:1;stroke:#ff0000;stroke-width:0.35433071;stroke-miterlimit:4;stroke-dasharray:none;display:inline"
       d="m 1519.737,708.86564 -5.1563,-19.12501 -27.9375,7.46875 14.5625,-25.18751 -17.1875,-9.90624 -14.5625,25.1875 -7.4687,-27.93749 -19.1875,5.09377 12.6249,47.15622 -20.3752,35.28108 -87.75,0 -48.625,84.15624 5.6249,-2e-5 10e-5,3.56251 -5.5938,-1e-5 42.8437,74.18749 -20.3749,35.31254 -47.125,12.65624 5.125,19.12501 27.9687,-7.46878 -14.5624,25.21885 17.1563,9.90632 14.5624,-25.18761 7.4687,27.90631 19.1876,-5.125 -12.625,-47.09382 20.4062,-35.34374 87.75,0 48.5937,-84.09378 -5.625,0 10e-5,-3.56249 5.6249,-10e-6 -42.8437,-74.25 20.3753,-35.28108 47.125,-12.65624 z m -48.4375,123.96874 -37.1874,64.40635 -72.375,0 -3.3749,5.87501 -3.0937,-1.78149 3.4063,-5.87497 -36.1875,-62.62501 37.1875,-64.4375 72.375,0 3.375,-5.87501 3.0936,1.78149 -3.4062,5.875 36.1874,62.65624 z"
       id="path4844-6-2-8-8"
       inkscape:connector-curvature="0" />
    <path
       style="fill:none;fill-opacity:1;stroke:#ff0000;stroke-width:0.35433071;stroke-miterlimit:4;stroke-dasharray:none;display:inline"
       d="m 1463.3278,23.566889 14.5468,25.19593 -27.9181,-7.48065 -5.1514,19.13998 47.1008,12.643501 20.375,35.29054 -51.0308,88.42455 -40.3349,0.0129 -34.4961,-34.49894 -14.0117,14.04356 20.4484,20.41753 -29.1057,0.0249 0,19.81087 29.0943,0.0178 -20.4332,20.42125 14.0322,14.05436 34.4719,-34.48044 41.3155,-0.002 49.5782,85.87183 -20.6594,35.77946 -47.0812,12.64037 5.1127,19.16792 27.956,-7.51624 -14.5589,25.22087 17.1729,9.93168 14.5473,-25.17818 7.485,27.9019 19.1523,-5.13975 -12.6133,-47.09688 20.1787,-34.92458 102.0777,-0.009 20.3906,35.3176 -12.6008,47.11225 19.1514,5.10873 7.4806,-27.91814 14.5625,25.22299 17.1852,-9.92188 -14.5468,-25.19592 27.9025,7.45358 5.1514,-19.13998 -47.1008,-12.6435 -20.3906,-35.3176 51.0193,-88.38186 40.3349,-0.0129 34.4805,34.47189 14.0273,-14.01651 -20.4369,-20.46021 29.1213,0.002 -0.015,-19.83793 -29.1213,-0.002 20.4602,-20.43688 -14.0165,-14.0273 -34.4719,34.48045 -41.3312,-0.0253 -49.5782,-85.87183 20.6323,-35.76383 47.124,-12.628931 -5.1398,-19.1523 -27.9289,7.50062 14.5432,-25.24793 -17.1572,-9.90463 -14.5745,25.19381 -7.4579,-27.91752 -19.195,5.12831 12.6404,47.08125 -20.1901,34.967261 -102.0662,-0.0339 -20.375,-35.290531 12.6008,-47.11225 -19.1514,-5.10873 -7.4807,27.91814 -14.5469,-25.19592 -17.1852,9.92187 z m 61.6927,90.604901 3.0581,-1.76563 4.3438,7.5236 97.2054,-0.0103 49.6093,85.92596 -48.596,84.20423 4.3281,7.49654 -3.0581,1.76562 -4.3438,-7.52359 -97.1512,-0.0209 -49.6094,-85.92595 48.5731,-84.11886 -4.3593,-7.55066 z"
       id="path4824-0-6-2-7"
       inkscape:connector-curvature="0" />
    <path
       style="fill:none;fill-opacity:1;stroke:#ff0000;stroke-width:0.35433071;stroke-miterlimit:4;stroke-dasharray:none;display:inline"
       d="m 1536.0361,133.25141 -41.942,72.60438 42.9531,74.39699 83.8639,0.006 -2.3594,-4.08656 3.0852,-1.78125 2.3594,4.08656 41.9264,-72.63144 -42.9532,-74.39699 -83.8482,0.0206 2.3438,4.05949 -3.0852,1.78125 -2.3438,-4.05949 z m 16.0739,24.27824 55.82,-0.004 27.9062,48.33505 -27.9294,48.31233 -55.8044,0.0314 -27.9062,-48.33505 27.9138,-48.33939 z"
       id="path3934-2-7-8-9"
       inkscape:connector-curvature="0" />
    <path
       style="fill:none;fill-opacity:1;stroke:#ff0000;stroke-width:0.35433071;stroke-miterlimit:4;stroke-dasharray:none;display:inline"
       d="m 785.59183,344.50915 0.0241,48.7486 -29.21453,29.21454 -96.69082,-25.92037 1.72275,6.42948 -3.44108,0.92209 -1.71473,-6.39932 -71.44028,71.45583 -39.38268,-10.54118 -24.39163,-42.25163 -17.17702,9.90839 14.45303,25.08272 -28.09831,-7.54723 -5.12826,19.13549 28.09827,7.54727 -25.02233,14.43707 9.88632,17.21525 42.25161,-24.39165 39.38272,10.54114 23.6173,88.14079 -29.52152,29.52166 -48.75653,-0.0101 0.008,19.82989 28.91848,-0.0168 -20.5918,20.5918 14.03918,13.99958 20.56861,-20.55446 0.008,28.88835 19.83788,0.0231 -0.0241,-48.74861 29.21449,-29.21449 98.0158,26.27703 -1.72272,-6.42938 3.44105,-0.92219 1.72274,6.42949 71.46725,-71.46725 39.35248,10.54932 24.39166,42.2516 17.16896,-9.93851 -14.44503,-25.05254 28.1285,7.53924 5.12836,-19.13558 -28.09828,-7.54726 25.02223,-14.43698 -9.91648,-17.20729 -42.22139,24.38363 -39.38274,-10.54126 -23.97311,-89.46887 28.49173,-28.53417 48.78691,-0.002 -0.008,-19.83001 -28.92662,-0.0137 20.59848,-20.56312 -14.05565,-14.0599 -20.53027,20.57693 -0.008,-28.88837 -19.86824,-0.0145 z m -120.44512,79.21654 82.98401,22.21666 21.70846,81.01704 7.42424,1.98989 -0.91984,3.44945 -7.42433,-1.98995 -59.30446,59.27477 -82.95374,-22.22472 -21.7386,-81.00897 -7.42427,-1.99001 0.91979,-3.4494 7.42421,1.99007 59.30453,-59.27483 z"
       id="path3909-5-9-4-7-2"
       inkscape:connector-curvature="0" />
    <path
       style="fill:none;fill-opacity:1;stroke:#ff0000;stroke-width:0.35433071;stroke-miterlimit:4;stroke-dasharray:none;display:inline"
       d="m 1576.9107,570.41611 0.031,19.80784 28.9186,0.0165 -20.5855,20.56005 14.0379,14.01709 20.5854,-20.56003 -0.016,28.91868 19.8519,0.0459 0.01,-48.817 28.809,-28.8089 84.7599,22.71131 68.7492,-68.70382 -5.4333,-1.45578 0.922,-3.44116 5.4031,1.44773 -22.1827,-82.74837 28.8203,-28.83583 48.7948,-0.0282 -4e-4,-19.7998 -28.9488,-0.0245 20.5919,-20.59196 -14.0077,-14.00901 -20.5855,20.55998 0.01,-28.88842 -19.8602,-0.0156 0.01,48.75663 -28.8587,28.85791 -84.7599,-22.71138 -68.703,68.65139 5.4333,1.45584 -0.9221,3.44109 -5.4333,-1.45583 22.1665,82.80877 -28.8089,28.80891 -48.7949,0.0281 z m 78.8724,-107.2081 52.5899,-52.58697 69.9088,18.73206 4.7803,-4.80154 2.5271,2.52147 -4.8104,4.7935 18.7459,69.85713 -52.5983,52.61673 -69.9089,-18.73201 -4.7803,4.80152 -2.5272,-2.5215 4.8105,-4.79349 -18.7378,-69.88731 z"
       id="path4844-6-2-5-2-8"
       inkscape:connector-curvature="0" />
    <path
       style="fill:none;fill-opacity:1;stroke:#ff0000;stroke-width:0.35433071;stroke-miterlimit:4;stroke-dasharray:none;display:inline"
       d="m 2116.6809,303.70296 -25.196,-14.54685 27.9182,-7.4806 -5.1088,-19.15147 -47.1123,12.60086 -35.2905,-20.37501 -0.018,-102.09333 34.9245,-20.17858 47.124,12.62887 5.1127,-19.16787 -27.9176,-7.45793 25.1939,-14.57446 -9.9047,-17.15717 -25.2053,14.53171 7.485,-27.90189 -19.1793,-5.155371 -12.6133,47.096891 -35.7794,20.65953 -85.8718,-49.57814 0,-41.315601 34.4534,-34.48749 -14.0117,-14.04354 -20.4525,20.48723 0,-29.12133 -19.838,-0.015 -0.01,29.07866 -20.4331,-20.42126 -14.0165,14.02729 34.4719,34.48044 -0.013,40.334921 -88.3973,51.04661 -35.3176,-20.39063 -12.6436,-47.100811 -19.1399,5.151421 7.4807,27.91812 -25.223,-14.5625 -9.9219,17.1852 25.1959,14.54691 -27.8911,7.49626 5.1087,19.15142 47.1123,-12.60081 35.3175,20.39064 0.01,102.05059 -34.9246,20.17862 -47.0969,-12.6133 -5.1397,19.15231 27.9289,7.50062 -25.2207,14.55891 9.932,17.17266 25.2207,-14.5589 -7.5006,27.92895 19.1522,5.13979 12.6134,-47.09692 35.8065,-20.64369 85.8719,49.57811 0.014,41.28856 -34.4961,34.4989 14.0273,14.0165 20.4368,-20.4601 0.029,29.1369 19.8109,-9.9e-4 0.025,-29.10571 20.4174,20.44831 14.0593,-14.0387 -34.4875,-34.4534 10e-4,-40.37755 88.4089,-51.00376 35.2906,20.37505 12.6434,47.10081 19.1399,-5.15146 -7.4806,-27.9181 25.1959,14.54685 9.9219,-17.1852 z m -98.7299,-47.61978 -1.7656,3.05816 -7.5236,-4.34375 -84.1773,48.61165 -85.9258,-49.60942 -0.017,-97.22098 -7.4966,-4.32814 1.7657,-3.05814 7.5236,4.34372 84.1459,-48.55752 85.9259,49.60938 -0.01,97.13561 7.5505,4.35941 z"
       id="path4824-0-6-5-0-6"
       inkscape:connector-curvature="0" />
    <path
       style="fill:none;fill-opacity:1;stroke:#ff0000;stroke-width:0.35433071;stroke-miterlimit:4;stroke-dasharray:none;display:inline"
       d="m 1998.8714,245.06756 0.021,-83.84821 -74.3969,-42.95315 -72.6313,41.92676 4.0866,2.35938 -1.7812,3.08519 -4.0866,-2.35937 0.01,83.86388 74.3971,42.95307 72.6043,-41.94193 -4.0595,-2.34374 1.7813,-3.08523 4.0594,2.34376 z m -26.0595,-12.98866 -48.3396,27.9135 -48.335,-27.90626 0.031,-55.80443 48.3123,-27.92939 48.335,27.90625 0,55.82004 z"
       id="path3934-2-7-0-2-7"
       inkscape:connector-curvature="0" />
    <path
       style="fill:none;fill-opacity:1;stroke:#ff0000;stroke-width:0.35433071;stroke-miterlimit:4;stroke-dasharray:none;display:inline"
       d="m 2081.1594,435.05133 -0.031,-19.80785 -28.9186,-0.0165 20.5855,-20.55996 -14.0378,-14.01718 -20.5855,20.56006 0.016,-28.91865 -19.8519,-0.0459 -0.01,48.81705 -28.809,28.80884 -84.7599,-22.71125 -68.7492,68.70379 5.4333,1.45578 -0.922,3.44116 -5.4031,-1.44773 22.1827,82.74837 -28.8203,28.83583 -48.7948,0.0282 4e-4,19.7998 28.9488,0.0245 -20.5919,20.59196 14.0077,14.00901 20.5855,-20.55997 -0.01,28.88841 19.8602,0.0156 -0.01,-48.75663 28.8587,-28.85791 84.7599,22.71138 68.703,-68.65139 -5.4333,-1.45584 0.9221,-3.44109 5.4333,1.45583 -22.1665,-82.80876 28.8089,-28.80894 48.7949,-0.0281 z m -78.8724,107.20808 -52.5898,52.58697 -69.9089,-18.73206 -4.7803,4.80154 -2.5271,-2.52147 4.8104,-4.7935 -18.7459,-69.85713 52.5983,-52.61677 69.9089,18.73203 4.7803,-4.80148 2.5272,2.52151 -4.8105,4.79349 18.7378,69.88728 z"
       id="path4844-6-2-5-2-8-6"
       inkscape:connector-curvature="0" />
    <path
       style="fill:none;fill-opacity:1;stroke:#ff0000;stroke-width:0.35433071;stroke-miterlimit:4;stroke-dasharray:none;display:inline"
       d="m 1505.3892,733.76446 25.196,14.54685 -27.9182,7.4806 5.1088,19.15147 47.1123,-12.60086 35.2905,20.37501 0.018,102.09333 -34.9245,20.17854 -47.124,-12.6288 -5.1127,19.1678 27.9176,7.458 -25.1939,14.5744 9.9047,17.1572 25.2053,-14.5317 -7.485,27.9019 19.1793,5.1554 12.6133,-47.0969 35.7794,-20.6596 85.8718,49.5782 0,41.3156 -34.4534,34.4875 14.0117,14.0435 20.4525,-20.4872 0,29.1213 19.838,0.015 0.01,-29.0787 20.4331,20.4213 14.0165,-14.0273 -34.4719,-34.4804 0.013,-40.3349 88.3973,-51.0467 35.3176,20.3907 12.6436,47.1008 19.1399,-5.1514 -7.4807,-27.9182 25.223,14.5625 9.9219,-17.1852 -25.1959,-14.5469 27.8911,-7.4962 -5.1087,-19.1515 -47.1123,12.6009 -35.3175,-20.39068 -0.01,-102.05059 34.9246,-20.17862 47.0969,12.6133 5.1397,-19.15231 -27.9289,-7.50062 25.2207,-14.55891 -9.932,-17.17266 -25.2207,14.5589 7.5006,-27.92895 -19.1522,-5.13979 -12.6134,47.09692 -35.8065,20.64369 -85.8719,-49.57811 -0.014,-41.28856 34.4961,-34.4989 -14.0273,-14.0165 -20.4368,20.4601 -0.029,-29.1369 -19.8109,9.9e-4 -0.025,29.10571 -20.4174,-20.44831 -14.0593,14.0387 34.4875,34.4534 -10e-4,40.37755 -88.4089,51.00376 -35.2906,-20.37505 -12.6434,-47.10081 -19.1399,5.15146 7.4806,27.9181 -25.1959,-14.54685 -9.9219,17.1852 z m 98.7299,47.61978 1.7656,-3.05816 7.5236,4.34375 84.1773,-48.61165 85.9258,49.60942 0.017,97.22098 7.4966,4.32814 -1.7657,3.05818 -7.5236,-4.34376 -84.1459,48.55756 -85.9259,-49.60942 0.01,-97.13561 -7.5505,-4.35941 z"
       id="path4824-0-6-5-0-6-2"
       inkscape:connector-curvature="0" />
    <path
       style="fill:none;fill-opacity:1;stroke:#ff0000;stroke-width:0.35433071;stroke-miterlimit:4;stroke-dasharray:none;display:inline"
       d="m 1623.1987,792.39986 -0.021,83.84821 74.3969,42.95313 72.6313,-41.92674 -4.0866,-2.35938 1.7812,-3.08519 4.0866,2.35937 -0.01,-83.86388 -74.3971,-42.95307 -72.6043,41.94193 4.0595,2.34374 -1.7813,3.08523 -4.0594,-2.34376 z m 26.0595,12.98866 48.3396,-27.9135 48.335,27.90626 -0.031,55.80443 -48.3123,27.92939 -48.335,-27.90625 0,-55.82004 z"
       id="path3934-2-7-0-2-7-4"
       inkscape:connector-curvature="0" />
    <path
       style="fill:none;fill-opacity:1;stroke:#ff0000;stroke-width:0.35433071;stroke-miterlimit:4;stroke-dasharray:none;display:inline"
       d="m 1863.4246,697.29252 47.0938,12.59389 20.6578,35.78032 -50.0626,86.68745 6.6563,7e-5 0,3.56241 -6.6251,10e-5 50.531,87.50016 -20.375,35.31241 -47.125,12.62507 5.1251,19.1562 27.9687,-7.4687 -14.5624,25.1875 17.1562,9.9061 14.5624,-25.1874 7.4689,27.9063 19.1874,-5.0938 -12.625,-47.12493 20.375,-35.31262 91.2501,-4e-5 20.8749,36.15644 -12.6288,47.09255 19.1568,5.1227 7.4684,-27.9375 14.5606,25.2197 17.1561,-9.9375 -14.5305,-25.1876 27.9066,7.4672 5.1566,-19.156 -47.0937,-12.59385 -20.6577,-35.78031 50.75,-87.875 -6.6562,5e-5 -2e-4,-3.56252 6.6563,7e-5 -50.535,-87.5292 20.3751,-35.28123 47.1249,-12.62495 -5.1562,-19.15626 -27.9376,7.46882 14.5626,-25.21875 -17.1562,-9.9063 -14.5625,25.1875 -7.4688,-27.90625 -19.1876,5.12502 12.6251,47.09369 -20.3751,35.31259 -92.625,-10e-6 -20.1876,-34.90616 12.625,-47.12504 -19.1569,-5.12272 -7.5,27.9374 -14.5312,-25.21865 -17.2187,9.93769 14.5622,25.15645 -27.9066,-7.4672 -5.1563,19.18745 z m 45.3438,136.84378 42.9375,-74.40629 83.875,-5e-5 3.8436,-6.6562 3.0939,1.78124 -3.8437,6.65629 41.9059,72.62518 -42.9374,74.37494 -83.8751,0.0312 -3.8437,6.65627 -3.0938,-1.78122 3.8438,-6.65616 -41.906,-72.62521 z"
       id="path3909-5-9-4-7-2-4"
       inkscape:connector-curvature="0" />
  </g>
</svg>
