<?xml version="1.0" encoding="UTF-8" standalone="no"?>
<svg
   xmlns:dc="http://purl.org/dc/elements/1.1/"
   xmlns:cc="http://creativecommons.org/ns#"
   xmlns:rdf="http://www.w3.org/1999/02/22-rdf-syntax-ns#"
   xmlns:svg="http://www.w3.org/2000/svg"
   xmlns="http://www.w3.org/2000/svg"
   xmlns:sodipodi="http://sodipodi.sourceforge.net/DTD/sodipodi-0.dtd"
   xmlns:inkscape="http://www.inkscape.org/namespaces/inkscape"
   version="1.0"
   width="450.34375"
   height="327.1875"
   id="svg2"
   inkscape:version="0.48.4 r9939"
   sodipodi:docname="snow_flake.svg">
  <sodipodi:namedview
     pagecolor="#ffffff"
     bordercolor="#666666"
     borderopacity="1"
     objecttolerance="10"
     gridtolerance="10"
     guidetolerance="10"
     inkscape:pageopacity="0"
     inkscape:pageshadow="2"
     inkscape:window-width="1317"
     inkscape:window-height="744"
     id="namedview3043"
     showgrid="false"
     inkscape:document-units="mm"
     units="mm"
     inkscape:snap-midpoints="true"
     inkscape:object-nodes="true"
     showguides="true"
     inkscape:guide-bbox="true"
     fit-margin-top="0"
     fit-margin-left="0"
     fit-margin-right="0"
     fit-margin-bottom="0"
     inkscape:zoom="0.35355339"
     inkscape:cx="102.0618"
     inkscape:cy="-155.69942"
     inkscape:window-x="49"
     inkscape:window-y="24"
     inkscape:window-maximized="1"
     inkscape:current-layer="svg2"
     inkscape:snap-object-midpoints="true" />
  <metadata
     id="metadata3045">
    <rdf:RDF>
      <cc:Work
         rdf:about="">
        <dc:format>image/svg+xml</dc:format>
        <dc:type
           rdf:resource="http://purl.org/dc/dcmitype/StillImage" />
        <dc:title></dc:title>
      </cc:Work>
    </rdf:RDF>
  </metadata>
  <defs
     id="defs6" />
  <path
     inkscape:connector-curvature="0"
     style="fill:#0000ff;fill-opacity:1;stroke:none"
     id="rect2991"
     d="m -595.81255,8.65625 0,40.7188 -30.59375,-17.6875 -15.53125,26.8125 46.125,26.718704 0,60.093796 -51.8125,-29.9375 -0.0937,-53.5313 -31,0.062 0.0625,35.562504 -35.375,-20.4375 -15.5,26.843796 35.28125,20.375 -30.625,17.625 15.4375,26.875 46.21875,-26.5938 52,30.0313 -51.8125,29.9062 -46.40625,-26.6875 -15.4375,26.875 30.8125,17.75 -35.375,20.4063 15.5,26.8437 35.28125,-20.375 -0.0625,35.3438 31,0.062 0.0937,-53.3125 52,-30 0,59.8125 -46.3125,26.8437 15.53125,26.8125 30.78125,-17.8125 0,40.8438 31,0 0,-40.7188 30.59375,17.6875 15.53125,-26.8125 -46.125,-26.7187 0,-60.0938 51.8125,29.9375 0.0937,53.5313 31,-0.062 -0.0625,-35.5625 35.375,20.4375 15.5,-26.8438 -35.28125,-20.375 30.625,-17.625 -15.4375,-26.875 -46.1875,26.5938 -52.03125,-30.0313 51.84375,-29.9375 46.375,26.7188 15.4375,-26.875 -30.8125,-17.75 35.375,-20.4063 -15.5,-26.843696 -35.28125,20.375 0.0625,-35.343804 -31,-0.062 -0.0937,53.3125 -52,30 0,-59.812496 46.3125,-26.843704 -15.53125,-26.8125 -30.78125,17.8125 0,-40.8438 -31,0 z" />
  <path
     style="fill:none;stroke:#ff0000;stroke-width:0.35433072;stroke-miterlimit:4;stroke-opacity:1;stroke-dasharray:none"
     d="m 53.22699,0.1709687 0,40.7187503 -35.125,-17.6875 -17.84375,26.8125 52.96875,26.71875 0,10 0,50.093751 0,18.75 5.3125,0 0,15.875 -5.3125,0 0,19.15625 0.21875,-0.0937 0,59.8125 -53.1875,26.84375 17.84375,26.8125 35.34375,-17.8125 0,40.84375 35.59375,0 0,-40.71875 35.125,17.6875 17.8125,-26.8125 -52.9375,-26.71875 0,-19.625 -0.21875,0 0,-59.3125 -5.3125,0 0,-15.84375 5.3125,0 0,-19 0,-49.812501 0,-10 53.15625,-26.84375 -17.8125,-26.8125 -35.34375,17.8125 0,-40.8437503 -35.59375,0 z m 9.9375,145.7187513 15.9375,0 0,35.40625 -15.9375,0 0,-35.40625 z"
     id="path3065"
     inkscape:connector-curvature="0" />
  <path
     style="fill:none;stroke:#ff0000;stroke-width:0.35433072;stroke-miterlimit:4;stroke-opacity:1;stroke-dasharray:none"
     d="m 157.29694,73.710074 0,40.718756 -35.125,-17.687506 -17.8437,26.812506 52.9687,26.71875 0,10 0,50.09375 0,25 -0.094,0 0,17.625 5.3125,0 0,-15.84375 4.5938,0 0,-15.9375 15.9687,0 0,15.9375 4.375,0 0,15.9375 5.3438,0 0,-15.9375 0.094,0 0,-26.9375 0,-49.8125 0,-10 53.1562,-26.84375 -17.8125,-26.812506 -35.3437,17.812506 0,-40.843756 -35.5938,0 z"
     id="path3144"
     inkscape:connector-curvature="0" />
  <path
     style="fill:none;stroke:#ff0000;stroke-width:0.35433072;stroke-miterlimit:4;stroke-opacity:1;stroke-dasharray:none"
     d="m 371.14095,76.804757 0,15.9375 -4.5937,0 0,-15.875 -5.3125,0 0,19.9375 0.094,0 0,22.718753 0,50.09375 0,10 -52.9688,26.71875 17.8438,26.8125 35.125,-17.6875 0,40.71875 35.5937,0 0,-40.84375 35.3438,17.8125 17.8125,-26.8125 -53.1563,-26.84375 0,-10 0,-49.8125 0,-26.937503 -0.094,0 0,-15.78125 -5.3437,0 0,15.78125 -4.375,0 0,-15.9375 -15.9688,0 z"
     id="path3149"
     inkscape:connector-curvature="0" />
  <rect
     transform="matrix(0,1,-1,0,0,0)"
     style="fill:#ff0000;fill-opacity:1;stroke:none"
     id="rect3165"
     width="31.889763"
     height="15.944881"
     x="152.45506"
     y="312.84778" />
  <rect
     style="fill:#ff0000;fill-opacity:1;stroke:none"
     id="rect3167"
     width="5.3149605"
     height="15.867554"
     x="-308.44556"
     y="168.47726" />
  <rect
     y="168.39993"
     x="-338.7251"
     height="15.867554"
     width="5.3149605"
     id="rect3169"
     style="fill:#ff0000;fill-opacity:1;stroke:none" />
  <path
     style="fill:#0000ff;fill-opacity:1;stroke:none"
     d="m -1072.9605,-557.02914 0,40.71875 -35.1281,-17.6875 -17.8331,26.8125 52.9612,26.71875 0,10 0,50.09375 0,53.78125 0.2153,-0.0937 0,59.8125 -53.1765,26.84375 17.8331,26.8125 35.3434,-17.8125 0,40.84375 35.5945,0 0,-40.71875 35.1281,17.6875 17.83314,-26.8125 -52.96124,-26.71875 0,-19.625 -0.2153,0 0,-94.15625 0,-49.8125 0,-10 53.17654,-26.8438 -17.83314,-26.8125 -35.3434,17.8125 0,-40.84375 -35.5945,0 z"
     id="path3171"
     inkscape:connector-curvature="0" />
  <path
     inkscape:connector-curvature="0"
     style="fill:#0000ff;fill-opacity:1;stroke:none"
     d="m -1085.5154,-21.844412 0,-40.71875 -35.125,17.6875 -17.8438,-26.8125 52.9688,-26.718748 0,-10 0,-50.09375 0,-26.78125 35.5937,0 0,26.9375 0,49.8125 0,10 53.15626,26.843748 -17.81246,26.8125 -35.3438,-17.8125 0,40.84375 -35.5937,0 z"
     id="path3173" />
  <rect
     transform="matrix(0,1,-1,0,0,0)"
     style="fill:#ff0000;fill-opacity:1;stroke:none"
     id="rect3175"
     width="35.433071"
     height="15.944881"
     x="79.361649"
     y="310.34894" />
  <rect
     style="fill:#ff0000;fill-opacity:1;stroke:none"
     id="rect3177"
     width="5.3149605"
     height="15.867554"
     x="-305.94672"
     y="89.144409" />
  <rect
     y="89.067078"
     x="-336.22632"
     height="15.867554"
     width="5.3149605"
     id="rect3179"
     style="fill:#ff0000;fill-opacity:1;stroke:none" />
  <path
     inkscape:connector-curvature="0"
     id="path3187"
     d="m 261.35902,0.1709687 0,40.7187503 -35.125,-17.6875 -17.84375,26.8125 52.96875,26.71875 0,10 0,50.093751 0,18.75 5.3125,0 0,15.875 -5.3125,0 0,19.15625 0.21875,-0.0937 0,59.8125 -53.1875,26.84375 17.84375,26.8125 35.34375,-17.8125 0,40.84375 35.59378,0 0,-40.71875 35.125,17.6875 17.8125,-26.8125 -52.9375,-26.71875 0,-19.625 -0.2188,0 0,-59.3125 -5.3125,0 0,-15.84375 5.3125,0 0,-19 0,-49.812501 0,-10 53.1563,-26.84375 -17.8125,-26.8125 -35.3438,17.8125 0,-40.8437503 -35.59373,0 z m 9.93753,145.7187513 15.9375,0 0,35.40625 -15.9375,0 0,-35.40625 z"
     style="fill:none;stroke:#ff0000;stroke-width:0.35433072;stroke-miterlimit:4;stroke-opacity:1;stroke-dasharray:none" />
  <path
     d="m 193.31861,444.23403 0,40.7188 -30.59375,-17.6875 -15.53125,26.8125 46.125,26.7187 0,60.0938 -51.8125,-29.9375 -0.0937,-53.5313 -31,0.062 0.0625,35.5625 -35.374996,-20.4375 -15.5,26.8438 35.28125,20.375 -30.625,17.625 15.4375,26.875 46.218746,-26.5938 52,30.0313 -51.8125,29.9062 -46.406246,-26.6875 -15.4375,26.875 30.8125,17.75 -35.375,20.4063 15.5,26.8437 35.281246,-20.375 -0.0625,35.3438 31,0.062 0.0937,-53.3125 52,-30 0,59.8125 -46.3125,26.8437 15.53125,26.8125 30.78125,-17.8125 0,40.84377 31,0 0,-40.71877 30.59375,17.6875 15.53125,-26.8125 -46.125,-26.7187 0,-60.0938 51.8125,29.9375 0.0937,53.5313 31.00001,-0.062 -0.0625,-35.5625 35.375,20.4375 15.5,-26.8438 -35.28125,-20.375 30.625,-17.625 -15.4375,-26.875 -46.1875,26.5938 -52.03126,-30.0313 51.84376,-29.9375 46.375,26.7188 15.4375,-26.875 -30.8125,-17.75 35.37495,-20.4063 -15.49995,-26.8437 -35.28125,20.375 0.0625,-35.3438 -31.00001,-0.062 -0.0937,53.3125 -52,30 0,-59.8125 46.3125,-26.8437 -15.53125,-26.8125 -30.78125,17.8125 0,-40.8438 -31,0 z"
     id="path3959"
     style="fill:none;stroke:#ff0000;stroke-width:0.35433072;stroke-miterlimit:4;stroke-dasharray:none"
     inkscape:connector-curvature="0" />
</svg>
